<?xml version="1.0" encoding="utf-8"?>
<svg height="24" viewBox="0 -960 960 960" width="24" xmlns="http://www.w3.org/2000/svg">
  <path d="m480-120-58-52q-101-91-167-157T150-447.5Q111-500 95.5-544T80-634q0-94 63-157t157-63q52 0 99 22t81 62q34-40 81-62t99-22q94 0 157 63t63 157q0 46-15.5 90T810-447.5Q771-395 705-329T538-172l-58 52Zm0-108q96-86 158-147.5t98-107q36-45.5 50-81t14-70.5q0-60-40-100t-100-40q-47 0-87 26.5T518-680h-76q-15-41-55-67.5T300-774q-60 0-100 40t-40 100q0 35 14 70.5t50 81q36 45.5 98 107T480-228Zm0-273Z" style="stroke: rgb(225, 29, 72); paint-order: fill; fill: rgb(225, 29, 72);"/>
  <path style="fill: rgb(225, 29, 72); stroke: rgba(0, 0, 0, 0);" d="M 456.174 -710.993 C 439.001 -728.166 435.325 -757.446 409.685 -770.266 C 398.991 -775.614 391.099 -784.208 381.792 -788.862 C 370.518 -794.499 356.255 -796.965 348.087 -805.133 C 341.754 -811.466 326.49 -806.053 319.031 -809.782 C 262.365 -838.115 199.828 -796.343 173.753 -770.266 C 167.252 -763.765 168.689 -746.606 160.969 -738.886 C 148.769 -726.687 148.184 -697.364 148.184 -674.964 C 148.184 -623.547 147.025 -554.091 178.402 -522.712 C 187.726 -513.387 189.947 -485.56 201.646 -479.71 C 206.435 -477.315 212.157 -459.85 214.431 -455.303 C 220.596 -442.972 234.28 -427.317 242.324 -419.274 C 270.364 -391.237 270.595 -330.044 313.22 -315.835 C 332.457 -309.423 350.17 -277.724 359.709 -268.184 C 379.635 -248.258 413.749 -246.975 441.065 -233.317 C 453.933 -226.883 465.477 -219.371 480.581 -219.371 C 482.67 -219.371 493.252 -218.095 494.528 -219.371 C 498.009 -222.852 511.875 -218.122 515.448 -221.695 C 522.728 -228.976 539.657 -234.962 550.315 -240.291 C 556.026 -243.146 559.211 -252.674 563.099 -256.562 C 574.816 -268.277 588.83 -290.428 601.453 -303.051 C 609.525 -311.124 610.941 -326.485 617.724 -333.269 C 634.739 -350.285 649.818 -375.822 666.538 -392.543 C 683.219 -409.224 711.403 -428.11 729.298 -446.005 C 752.556 -469.264 774.732 -511.52 783.922 -548.281 C 788.191 -565.356 797.035 -603.234 807.167 -613.366 C 813.315 -619.513 808.18 -637.474 811.816 -644.746 C 815.09 -651.295 816.718 -684.917 812.978 -692.397 C 806.285 -705.784 792.075 -731.324 774.625 -740.049 C 760.092 -747.314 747.196 -758.18 736.271 -769.104 C 732.414 -772.961 718.3 -776.644 713.027 -778.402 C 699.716 -782.839 681.403 -788.403 668.862 -794.673 C 663.438 -797.385 649.492 -794.673 643.293 -794.673 C 611.186 -794.673 586.88 -788.235 566.586 -767.942 C 556.786 -758.143 539.302 -756.929 530.557 -748.184 C 519.403 -737.03 486.893 -740.549 475.932 -729.589 C 472.099 -725.756 460.823 -730.382 460.823 -722.615"/>
</svg>