<?xml version="1.0" encoding="UTF-8" standalone="no"?>
<!DOCTYPE svg PUBLIC "-//W3C//DTD SVG 1.1//EN" "http://www.w3.org/Graphics/SVG/1.1/DTD/svg11.dtd">
<svg width="100%" height="100%" viewBox="0 0 220 217" version="1.1" xmlns="http://www.w3.org/2000/svg" xmlns:xlink="http://www.w3.org/1999/xlink" xml:space="preserve" xmlns:serif="http://www.serif.com/" style="fill-rule:evenodd;clip-rule:evenodd;stroke-linejoin:round;stroke-miterlimit:1.41421;">
    <g transform="matrix(0.792982,0.267917,-0.267917,0.792982,37.9132,-302.034)">
        <path d="M234.45,408.788C233.428,398.619 236.226,377.847 254.123,372.014C258.541,370.562 260.753,377.303 256.318,378.747C239.387,384.268 241.403,407.115 241.497,408.085C241.948,412.739 234.918,413.441 234.45,408.788" style="fill:white;fill-rule:nonzero;"/>
    </g>
    <g transform="matrix(0.792982,0.267917,-0.267917,0.792982,44.366,-321.133)">
        <path d="M204.276,390.581C204.472,400.617 206.681,407.865 210.859,412.15C214.552,415.941 219.62,417.088 224.733,416.464C225.471,408.482 223.936,402.236 220.157,397.874C215.529,392.533 208.396,391.008 204.276,390.581ZM205.786,417.096C199.741,410.893 196.855,400.698 197.209,386.799C197.257,384.951 198.731,383.449 200.576,383.352C209.317,382.895 219.737,386.573 225.511,393.237C231.078,399.665 233.076,408.655 231.449,419.958C231.252,421.326 230.276,422.455 228.951,422.848C221.078,425.193 211.556,423.012 205.786,417.096" style="fill:white;fill-rule:nonzero;"/>
    </g>
    <g transform="matrix(0.792982,0.267917,-0.267917,0.792982,0.766197,-192.086)">
        <path d="M204.562,280.832C193.481,280.832 182.741,288.185 180.229,299.242C177.158,312.765 184.772,332.282 198.337,345.649C214.729,361.804 230.296,364.343 236.493,364.66C237.886,364.73 239.693,364.684 241.093,364.567C247.323,364.039 262.021,361.023 278.629,345.293C292.405,332.242 300.152,313.812 297.465,300.473C295.742,291.914 289.918,285.705 280.153,282.018C277.715,281.097 275.031,280.631 272.175,280.631C256.99,280.631 241.463,293.398 241.309,293.527C239.268,295.225 236.293,295.192 234.295,293.447C234.156,293.326 219.582,280.832 204.562,280.832ZM237.074,375.494C230.25,375.315 210.638,372.943 190.752,353.346C174.445,337.276 165.785,314.044 169.69,296.849C173.332,280.826 188.412,270.025 204.562,270.025C218.8,270.025 231.868,278.155 237.907,282.562C244.151,278.141 257.809,269.824 272.175,269.824C276.339,269.824 280.307,270.525 283.969,271.908C300.758,278.246 306.337,289.78 308.061,298.341C312.026,318.041 299.869,340.057 286.06,353.138C266.49,371.676 248.417,374.896 241.177,375.392C239.827,375.485 238.427,375.528 237.074,375.494" style="fill:white;fill-rule:nonzero;"/>
    </g>
    <g transform="matrix(-0.968968,-0.158679,0.158679,-0.968968,819.672,316.077)">
        <path d="M751.468,187.196L751.264,187.229L751.059,187.26L750.854,187.29L750.649,187.32L750.443,187.348L750.237,187.376L750.031,187.403L749.824,187.429L749.617,187.454L749.409,187.478L749.201,187.501L748.993,187.523L748.785,187.545L748.576,187.565L748.367,187.584L748.157,187.603L747.948,187.62L747.737,187.637L747.527,187.653L747.316,187.668L747.105,187.682L746.893,187.694L746.681,187.706L746.469,187.718L746.256,187.728L746.043,187.737L745.83,187.745L745.616,187.752L745.402,187.759L745.187,187.764L744.972,187.769L744.757,187.772L744.541,187.775L744.325,187.776L744.109,187.777L743.892,187.777L743.675,187.775L743.458,187.773L743.24,187.77L743.022,187.766L742.803,187.761L742.584,187.755L742.365,187.748L742.145,187.74L741.925,187.731L741.705,187.721L741.484,187.711L741.262,187.699L741.041,187.686L740.819,187.672L740.596,187.658L740.373,187.642L740.15,187.626L739.926,187.608L739.702,187.59L739.478,187.57L739.253,187.55L739.028,187.529L738.802,187.506L738.576,187.483L738.349,187.459L738.122,187.433L737.895,187.407L737.667,187.38L737.438,187.352L737.21,187.323L736.98,187.293L736.751,187.262L736.521,187.23L736.29,187.197L736.059,187.163L735.828,187.128L735.596,187.093L735.364,187.056L735.131,187.018L734.898,186.979L734.664,186.94L734.43,186.899L734.195,186.857L733.96,186.815L733.724,186.771L733.488,186.727L733.252,186.681L733.014,186.635L732.777,186.587L732.539,186.539L732.3,186.49L732.061,186.439L731.821,186.388L731.581,186.336L731.341,186.283L731.099,186.228L730.858,186.173L730.611,186.116L730.129,186.002L729.641,185.883L729.151,185.76L728.658,185.633L728.163,185.502L727.665,185.367L727.166,185.229L726.664,185.086L726.159,184.94L725.652,184.789L725.143,184.635L724.631,184.477L724.116,184.315L723.599,184.148L723.08,183.978L722.557,183.804L722.032,183.626L721.504,183.444L720.974,183.258L720.44,183.068L719.904,182.874L719.365,182.676L718.823,182.474L718.278,182.268L717.73,182.058L717.179,181.844L716.624,181.626L716.067,181.403L715.507,181.177L714.943,180.947L714.376,180.712L713.806,180.473L713.233,180.231L712.656,179.984L712.076,179.733L711.492,179.478L710.905,179.218L710.314,178.955L709.72,178.687L709.123,178.415L708.521,178.139L707.917,177.859L707.308,177.574L706.696,177.286L706.08,176.993L705.46,176.695L704.836,176.394L704.208,176.088L703.577,175.778L702.942,175.463L702.302,175.144L701.659,174.821L701.011,174.494L700.36,174.162L699.704,173.825L699.044,173.485L698.38,173.14L697.712,172.79L697.039,172.436L696.362,172.078L695.681,171.715L694.995,171.348L694.305,170.976L693.609,170.598L693.299,170.429L692.988,170.258L692.68,170.087L692.373,169.915L692.068,169.742L691.764,169.568L691.462,169.394L691.162,169.22L690.864,169.045L690.567,168.869L690.272,168.692L689.979,168.515L689.688,168.338L689.398,168.159L689.109,167.98L688.823,167.801L688.538,167.62L688.254,167.439L687.973,167.258L687.693,167.075L687.414,166.892L687.137,166.709L686.862,166.524L686.589,166.339L686.317,166.154L686.046,165.967L685.778,165.78L685.51,165.593L685.245,165.404L684.981,165.215L684.718,165.025L684.457,164.835L684.198,164.644L683.94,164.452L683.684,164.259L683.429,164.066L683.176,163.872L682.925,163.677L682.674,163.481L682.426,163.285L682.179,163.088L681.934,162.891L681.689,162.692L681.447,162.493L681.206,162.293L680.966,162.093L680.729,161.891L680.492,161.689L680.257,161.486L680.023,161.283L679.791,161.079L679.561,160.874L679.332,160.668L679.104,160.461L678.878,160.254L678.653,160.046L678.43,159.837L678.208,159.628L677.987,159.418L677.768,159.207L677.551,158.995L677.335,158.782L677.12,158.569L676.907,158.355L676.695,158.14L676.484,157.925L676.275,157.709L676.067,157.492L675.861,157.274L675.656,157.055L675.453,156.836L675.25,156.616L675.05,156.396L674.85,156.174L674.652,155.952L674.455,155.729L674.26,155.505L674.066,155.281L673.873,155.055L673.682,154.83L673.492,154.603L673.303,154.376L673.116,154.147L672.929,153.918L672.745,153.689L672.561,153.459L672.379,153.227L672.198,152.996L672.018,152.763L671.84,152.53L671.663,152.296L671.487,152.061L671.312,151.825L671.139,151.589L670.967,151.352L670.796,151.115L670.626,150.876L670.458,150.637L670.291,150.397L670.125,150.157L669.96,149.916L669.796,149.674L669.634,149.431L669.472,149.188L669.312,148.944L669.153,148.699L668.995,148.453L668.839,148.207L668.683,147.96L668.529,147.712L668.375,147.464L668.223,147.215L668.072,146.965L667.922,146.715L667.773,146.463L667.625,146.212L667.478,145.959L667.333,145.706L667.188,145.452L667.044,145.197L666.902,144.942L666.76,144.686L666.619,144.429L666.48,144.171L666.341,143.913L666.204,143.654L666.067,143.395L665.931,143.134L665.797,142.873L665.663,142.612L665.53,142.349L665.398,142.086L665.267,141.822L665.137,141.558L665.008,141.293L664.88,141.027L664.752,140.76L664.626,140.493L664.5,140.225L664.376,139.956L664.252,139.686L664.128,139.416L664.006,139.145L663.885,138.874L663.764,138.602L663.644,138.329L663.525,138.055L663.407,137.78L663.289,137.505L663.173,137.229L663.056,136.953L662.941,136.675L662.827,136.397L662.713,136.118L662.6,135.839L662.487,135.559L662.375,135.278L662.264,134.996L662.154,134.713L662.044,134.43L661.935,134.146L661.826,133.861L661.718,133.576L661.611,133.29L661.505,133.003L661.399,132.715L661.293,132.427L661.187,132.134L660.98,131.557L660.774,130.973L660.57,130.386L660.369,129.796L660.169,129.202L659.971,128.606L659.775,128.006L659.58,127.403L659.387,126.797L659.196,126.187L659.007,125.575L658.818,124.959L658.631,124.339L658.446,123.716L658.261,123.09L658.078,122.46L657.895,121.826L657.714,121.19L657.533,120.549L657.354,119.905L657.175,119.258L656.996,118.606L656.819,117.951L656.642,117.293L656.465,116.63L656.289,115.964L656.112,115.294L655.937,114.62L655.761,113.942L655.585,113.261L655.41,112.575L655.234,111.886L655.059,111.192L654.883,110.493L654.53,109.087L654.176,107.664L653.82,106.223L653.461,104.765L653.097,103.285L652.94,102.639L652.786,101.995L652.637,101.357L652.492,100.725L652.351,100.099L652.214,99.479L652.082,98.864L651.954,98.255L651.83,97.652L651.711,97.055L651.595,96.462L651.484,95.876L651.377,95.295L651.274,94.719L651.175,94.148L651.08,93.583L650.99,93.026L650.946,92.744L650.903,92.467L650.861,92.191L650.82,91.917L650.781,91.644L650.742,91.372L650.704,91.101L650.667,90.831L650.632,90.563L650.597,90.296L650.563,90.029L650.531,89.765L650.499,89.501L650.468,89.238L650.438,88.977L650.41,88.717L650.382,88.458L650.355,88.199L650.329,87.943L650.305,87.687L650.281,87.432L650.258,87.179L650.236,86.926L650.215,86.675L650.195,86.424L650.177,86.175L650.159,85.927L650.142,85.68L650.126,85.434L650.111,85.189L650.097,84.945L650.084,84.702L650.072,84.46L650.061,84.219L650.051,83.979L650.041,83.74L650.033,83.502L650.026,83.265L650.02,83.029L650.015,82.794L650.01,82.56L650.007,82.327L650.005,82.095L650.003,81.864L650.003,81.633L650.003,81.404L650.005,81.176L650.007,80.948L650.01,80.721L650.015,80.496L650.02,80.271L650.026,80.047L650.034,79.824L650.042,79.602L650.051,79.381L650.061,79.16L650.072,78.941L650.084,78.722L650.097,78.504L650.11,78.287L650.125,78.071L650.141,77.856L650.158,77.642L650.175,77.428L650.194,77.215L650.213,77.003L650.234,76.792L650.255,76.582L650.278,76.372L650.301,76.164L650.325,75.956L650.35,75.749L650.376,75.543L650.403,75.337L650.431,75.132L650.46,74.928L650.49,74.725L650.52,74.523L650.552,74.322L650.584,74.121L650.618,73.921L650.652,73.722L650.688,73.523L650.724,73.325L650.761,73.129L650.799,72.933L650.838,72.737L650.877,72.542L650.918,72.348L650.96,72.155L651.002,71.963L651.046,71.771L651.09,71.58L651.135,71.39L651.181,71.201L651.228,71.012L651.275,70.824L651.324,70.637L651.373,70.45L651.424,70.265L651.475,70.08L651.527,69.895L651.58,69.712L651.634,69.529L651.688,69.347L651.743,69.166L651.8,68.985L651.857,68.805L651.915,68.626L651.973,68.447L652.033,68.269L652.093,68.092L652.154,67.916L652.216,67.74L652.278,67.565L652.342,67.391L652.406,67.218L652.471,67.045L652.537,66.873L652.603,66.701L652.67,66.531L652.738,66.361L652.807,66.191L652.876,66.023L652.946,65.855L653.017,65.687L653.089,65.521L653.164,65.348L653.307,65.025L653.457,64.698L653.608,64.374L653.763,64.052L653.92,63.733L654.08,63.416L654.242,63.102L654.406,62.79L654.573,62.481L654.741,62.175L654.912,61.87L655.086,61.569L655.261,61.269L655.438,60.972L655.617,60.677L655.799,60.384L655.982,60.093L656.166,59.805L656.353,59.518L656.541,59.233L656.731,58.951L656.922,58.67L657.115,58.391L657.31,58.113L657.506,57.838L657.703,57.564L657.901,57.292L658.101,57.021L658.302,56.751L658.505,56.483L658.708,56.216L658.913,55.95L659.119,55.686L659.326,55.423L659.534,55.16L659.742,54.899L659.952,54.639L660.163,54.379L660.375,54.12L660.587,53.862L660.801,53.604L661.015,53.347L661.23,53.091L661.446,52.835L661.664,52.577L662.092,52.074L662.536,51.555L662.969,51.046L663.396,50.541L663.819,50.041L664.235,49.545L664.647,49.054L665.053,48.566L665.454,48.084L665.85,47.605L666.24,47.131L666.626,46.661L667.006,46.196L667.381,45.735L667.751,45.278L668.116,44.826L668.477,44.378L668.832,43.934L669.182,43.494L669.527,43.059L669.867,42.629L670.203,42.202L670.534,41.78L670.859,41.362L671.181,40.949L671.497,40.539L671.809,40.134L672.116,39.734L672.418,39.337L672.716,38.945L673.009,38.557L673.298,38.174L673.582,37.795L673.861,37.42L674.137,37.049L674.407,36.683L674.674,36.32L674.936,35.962L675.194,35.609L675.447,35.259L675.696,34.914L675.941,34.573L676.182,34.236L676.418,33.904L676.65,33.576L676.878,33.252L677.103,32.932L677.323,32.617L677.539,32.305L677.751,31.998L677.959,31.695L678.163,31.397L678.363,31.102L678.56,30.812L678.752,30.526L678.941,30.244L679.126,29.966L679.307,29.693L679.485,29.424L679.658,29.158L679.828,28.897L679.995,28.641L680.158,28.388L680.317,28.14L680.471,27.898L680.774,27.419L681.062,26.96L681.336,26.517L681.596,26.091L681.844,25.681L682.079,25.288L682.301,24.911L682.511,24.55L682.709,24.206L682.895,23.879L683.07,23.568L683.233,23.273L683.385,22.994L683.527,22.732L683.658,22.486L683.779,22.256L683.889,22.042L683.99,21.845L684.081,21.664L684.163,21.498L684.236,21.349L684.3,21.216L684.355,21.099L684.403,20.998L684.442,20.913L684.47,20.851L684.514,20.75L684.527,20.719L684.537,20.695L684.694,20.324L684.851,19.96L685.011,19.6L685.172,19.243L685.335,18.889L685.5,18.538L685.667,18.191L685.835,17.847L686.006,17.506L686.179,17.168L686.353,16.834L686.529,16.503L686.707,16.175L686.887,15.85L687.069,15.529L687.253,15.211L687.438,14.896L687.625,14.584L687.814,14.276L688.005,13.97L688.198,13.668L688.392,13.369L688.588,13.073L688.786,12.781L688.986,12.491L689.187,12.205L689.39,11.922L689.595,11.642L689.802,11.365L690.01,11.091L690.22,10.821L690.431,10.553L690.644,10.289L690.859,10.028L691.075,9.77L691.293,9.515L691.512,9.263L691.733,9.015L691.955,8.769L692.179,8.527L692.405,8.287L692.632,8.051L692.86,7.818L693.09,7.588L693.321,7.361L693.553,7.137L693.787,6.917L694.022,6.699L694.258,6.484L694.496,6.273L694.735,6.065L694.975,5.859L695.216,5.657L695.459,5.458L695.702,5.262L695.947,5.068L696.193,4.878L696.44,4.691L696.688,4.507L696.936,4.326L697.186,4.147L697.437,3.972L697.689,3.8L697.941,3.631L698.195,3.464L698.449,3.301L698.705,3.14L698.96,2.982L699.217,2.828L699.474,2.676L699.732,2.526L699.991,2.38L700.25,2.237L700.51,2.096L700.771,1.958L701.032,1.823L701.294,1.691L701.556,1.561L701.818,1.434L702.081,1.309L702.345,1.188L702.609,1.069L702.873,0.952L703.137,0.838L703.402,0.727L703.667,0.618L703.933,0.512L704.198,0.408L704.464,0.307L704.73,0.208L704.997,0.112L705.263,0.018L705.529,-0.074L705.796,-0.163L706.063,-0.25L706.33,-0.335L706.597,-0.418L706.863,-0.498L707.13,-0.576L707.397,-0.651L707.664,-0.725L707.931,-0.796L708.197,-0.866L708.464,-0.933L708.73,-0.998L708.997,-1.061L709.263,-1.122L709.529,-1.182L709.795,-1.239L710.061,-1.294L710.326,-1.347L710.591,-1.399L710.856,-1.448L711.121,-1.496L711.386,-1.542L711.65,-1.586L711.914,-1.629L712.177,-1.67L712.441,-1.709L712.704,-1.746L712.966,-1.782L713.228,-1.816L713.491,-1.849L713.752,-1.88L714.013,-1.909L714.274,-1.937L714.534,-1.963L714.794,-1.988L715.053,-2.012L715.312,-2.034L715.57,-2.055L715.828,-2.074L716.086,-2.092L716.343,-2.109L716.599,-2.124L716.855,-2.138L717.11,-2.151L717.365,-2.163L717.619,-2.173L717.873,-2.182L718.126,-2.191L718.378,-2.198L718.63,-2.204L718.881,-2.208L719.132,-2.212L719.382,-2.215L719.631,-2.217L719.879,-2.217L720.127,-2.217L720.374,-2.216L720.621,-2.214L720.867,-2.211L721.112,-2.207L721.356,-2.203L721.6,-2.197L721.847,-2.191L722.326,-2.176L722.806,-2.158L723.283,-2.137L723.757,-2.114L724.227,-2.088L724.694,-2.06L725.157,-2.03L725.616,-1.998L726.072,-1.964L726.523,-1.929L726.971,-1.892L727.415,-1.854L727.854,-1.814L728.289,-1.774L728.719,-1.733L729.145,-1.692L729.566,-1.649L729.985,-1.607L730.8,-1.522L731.597,-1.437L732.372,-1.355L733.124,-1.275L733.855,-1.199L734.207,-1.164L734.554,-1.13L734.895,-1.097L735.229,-1.066L735.555,-1.037L735.874,-1.01L736.185,-0.985L736.488,-0.963L736.783,-0.942L737.069,-0.925L737.347,-0.909L737.615,-0.897L737.873,-0.887L738.13,-0.879L738.243,-0.877L738.361,-0.875L738.476,-0.873L738.588,-0.873L738.698,-0.873L738.805,-0.873L738.909,-0.875L739.01,-0.877L739.108,-0.879L739.203,-0.883L739.294,-0.887L739.383,-0.891L739.468,-0.896L739.55,-0.901L739.628,-0.907L739.709,-0.914L739.927,-0.934L740.153,-0.956L740.381,-0.98L740.612,-1.005L740.844,-1.031L741.079,-1.058L741.316,-1.087L741.555,-1.117L741.796,-1.149L742.039,-1.181L742.284,-1.215L742.531,-1.25L742.78,-1.285L743.028,-1.322L743.54,-1.399L744.056,-1.48L744.579,-1.564L745.11,-1.652L745.648,-1.742L746.194,-1.835L746.745,-1.93L747.873,-2.125L749.024,-2.324L749.611,-2.425L750.204,-2.526L750.803,-2.626L751.409,-2.726L752.021,-2.824L752.639,-2.922L753.26,-3.016L753.578,-3.064L753.894,-3.11L754.211,-3.155L754.53,-3.2L754.851,-3.244L755.173,-3.288L755.496,-3.33L755.822,-3.372L756.148,-3.412L756.476,-3.452L756.806,-3.49L757.136,-3.528L757.469,-3.564L757.803,-3.599L758.138,-3.633L758.475,-3.666L758.813,-3.697L759.152,-3.726L759.493,-3.755L759.835,-3.781L760.179,-3.806L760.524,-3.83L760.871,-3.852L761.218,-3.872L761.568,-3.89L761.918,-3.907L762.27,-3.921L762.623,-3.934L762.978,-3.944L763.334,-3.953L763.691,-3.96L764.05,-3.964L764.409,-3.966L764.771,-3.966L765.133,-3.963L765.497,-3.958L765.862,-3.951L766.228,-3.941L766.595,-3.929L766.963,-3.914L767.333,-3.896L767.704,-3.876L768.076,-3.853L768.45,-3.827L768.824,-3.798L769.2,-3.766L769.576,-3.732L769.954,-3.694L770.333,-3.653L770.712,-3.609L771.093,-3.562L771.475,-3.512L771.858,-3.458L772.242,-3.401L772.627,-3.341L773.013,-3.277L773.399,-3.209L773.787,-3.138L774.176,-3.064L774.559,-2.987L774.76,-2.945L774.955,-2.904L775.151,-2.862L775.346,-2.818L775.542,-2.774L775.738,-2.729L775.934,-2.683L776.131,-2.636L776.327,-2.588L776.524,-2.539L776.721,-2.489L776.918,-2.438L777.115,-2.386L777.313,-2.333L777.51,-2.279L777.708,-2.223L777.906,-2.167L778.104,-2.11L778.303,-2.052L778.501,-1.993L778.7,-1.933L778.899,-1.872L779.097,-1.809L779.296,-1.746L779.495,-1.682L779.695,-1.616L779.894,-1.55L780.094,-1.482L780.293,-1.413L780.493,-1.344L780.693,-1.273L780.893,-1.201L781.093,-1.128L781.294,-1.053L781.494,-0.978L781.695,-0.902L782.088,-0.75L782.473,-0.599L782.851,-0.448L783.222,-0.298L783.586,-0.148L783.944,0.001L784.295,0.151L784.639,0.3L784.978,0.449L785.311,0.598L785.638,0.747L785.961,0.896L786.277,1.046L786.589,1.195L786.896,1.346L787.198,1.496L787.496,1.648L787.789,1.799L788.078,1.951L788.363,2.104L788.644,2.258L788.921,2.412L789.195,2.567L789.465,2.722L789.731,2.878L789.995,3.035L790.255,3.193L790.512,3.351L790.767,3.51L791.018,3.669L791.268,3.829L791.515,3.99L791.759,4.152L792.002,4.314L792.242,4.477L792.482,4.64L792.719,4.804L792.956,4.969L793.192,5.135L793.426,5.302L793.661,5.469L793.898,5.64L794.362,5.977L794.833,6.322L795.309,6.673L796.281,7.392L796.784,7.765L797.301,8.146L797.834,8.537L798.386,8.94L798.962,9.356L799.255,9.567L799.568,9.791L799.782,9.945L800.008,10.11L800.234,10.278L800.46,10.448L800.685,10.62L800.911,10.795L801.137,10.973L801.363,11.152L801.59,11.334L801.817,11.519L802.044,11.705L802.271,11.894L802.498,12.086L802.726,12.279L802.955,12.475L803.183,12.672L803.412,12.872L803.642,13.074L803.872,13.278L804.102,13.485L804.333,13.693L804.564,13.903L804.796,14.115L805.028,14.329L805.261,14.545L805.494,14.762L805.728,14.982L805.961,15.203L806.196,15.426L806.431,15.651L806.666,15.878L806.902,16.106L807.138,16.336L807.377,16.569L807.849,17.034L808.326,17.508L808.803,17.987L809.283,18.471L809.763,18.96L810.245,19.454L810.729,19.952L811.213,20.455L811.698,20.961L812.184,21.471L812.671,21.984L813.159,22.5L813.647,23.019L814.135,23.54L814.624,24.063L815.113,24.587L815.603,25.113L816.578,26.166L817.554,27.221L818.526,28.274L819.495,29.323L820.458,30.366L821.415,31.399L821.89,31.91L822.363,32.419L822.833,32.923L823.302,33.424L823.767,33.919L824.23,34.41L824.69,34.896L825.147,35.376L825.6,35.85L826.049,36.318L826.495,36.779L826.937,37.233L827.374,37.679L827.807,38.118L828.235,38.548L828.659,38.97L829.079,39.385L829.284,39.585L829.5,39.795L829.815,40.104L830.136,40.423L830.453,40.742L830.766,41.062L831.076,41.383L831.381,41.704L831.682,42.026L831.98,42.348L832.274,42.671L832.564,42.995L832.85,43.319L833.132,43.644L833.411,43.969L833.686,44.294L833.957,44.621L834.224,44.947L834.487,45.275L834.747,45.602L835.003,45.93L835.255,46.259L835.504,46.588L835.749,46.918L835.991,47.248L836.228,47.578L836.463,47.908L836.693,48.24L836.92,48.571L837.144,48.903L837.364,49.235L837.58,49.567L837.793,49.9L838.002,50.233L838.208,50.566L838.411,50.899L838.61,51.233L838.805,51.567L838.997,51.901L839.186,52.236L839.371,52.57L839.553,52.905L839.732,53.239L839.907,53.574L840.08,53.909L840.248,54.244L840.414,54.58L840.576,54.915L840.735,55.25L840.891,55.585L841.044,55.921L841.193,56.256L841.339,56.591L841.483,56.926L841.623,57.261L841.76,57.596L841.894,57.931L842.025,58.266L842.153,58.6L842.278,58.935L842.4,59.269L842.519,59.603L842.635,59.937L842.748,60.27L842.858,60.604L842.966,60.937L843.07,61.27L843.172,61.602L843.271,61.934L843.367,62.266L843.461,62.597L843.552,62.929L843.64,63.259L843.725,63.59L843.808,63.92L843.888,64.249L843.966,64.578L844.041,64.907L844.114,65.235L844.184,65.562L844.251,65.889L844.317,66.216L844.379,66.542L844.44,66.867L844.498,67.192L844.553,67.516L844.607,67.84L844.658,68.163L844.706,68.486L844.753,68.807L844.797,69.128L844.839,69.449L844.879,69.769L844.917,70.088L844.953,70.406L844.987,70.724L845.018,71.041L845.048,71.357L845.076,71.672L845.101,71.987L845.125,72.301L845.147,72.614L845.167,72.926L845.185,73.238L845.202,73.548L845.216,73.858L845.229,74.167L845.24,74.475L845.25,74.782L845.258,75.089L845.264,75.394L845.268,75.698L845.271,76.002L845.272,76.305L845.272,76.606L845.27,76.907L845.267,77.207L845.263,77.506L845.257,77.804L845.249,78.101L845.24,78.397L845.23,78.692L845.219,78.986L845.206,79.279L845.192,79.57L845.177,79.861L845.16,80.151L845.143,80.44L845.124,80.728L845.104,81.014L845.083,81.3L845.061,81.584L845.038,81.867L845.014,82.15L844.989,82.431L844.963,82.711L844.936,82.99L844.908,83.267L844.88,83.544L844.85,83.819L844.82,84.093L844.788,84.366L844.756,84.638L844.724,84.909L844.69,85.178L844.656,85.451L844.586,85.979L844.513,86.507L844.439,87.03L844.362,87.547L844.283,88.06L844.203,88.567L844.121,89.068L844.038,89.565L843.954,90.055L843.869,90.541L843.784,91.02L843.698,91.494L843.612,91.961L843.527,92.423L843.441,92.878L843.356,93.329L843.188,94.206L843.023,95.06L842.865,95.886L842.712,96.687L842.64,97.072L842.57,97.452L842.502,97.825L842.437,98.189L842.375,98.545L842.316,98.893L842.26,99.232L842.208,99.562L842.159,99.883L842.114,100.195L842.071,100.503L842.053,100.645L842.034,100.789L842.017,100.931L842.001,101.071L841.986,101.207L841.971,101.341L841.958,101.472L841.946,101.601L841.935,101.726L841.925,101.848L841.916,101.968L841.908,102.084L841.901,102.197L841.895,102.308L841.89,102.414L841.886,102.518L841.883,102.618L841.881,102.714L841.879,102.808L841.879,102.897L841.88,102.983L841.881,103.065L841.883,103.144L841.886,103.218L841.889,103.289L841.894,103.355L841.898,103.417L841.903,103.476L841.909,103.53L841.914,103.58L841.92,103.625L841.926,103.666L841.932,103.703L841.937,103.735L841.943,103.763L841.947,103.787L841.952,103.805L841.955,103.82L841.96,103.836L841.972,103.872L842.087,104.216L842.212,104.596L842.333,104.975L842.449,105.352L842.562,105.728L842.671,106.102L842.776,106.475L842.877,106.846L842.974,107.217L843.067,107.585L843.157,107.953L843.242,108.319L843.324,108.683L843.401,109.046L843.475,109.408L843.545,109.769L843.612,110.128L843.674,110.485L843.733,110.842L843.788,111.197L843.839,111.55L843.886,111.903L843.929,112.254L843.969,112.603L844.005,112.951L844.037,113.298L844.065,113.644L844.09,113.988L844.111,114.33L844.128,114.671L844.141,115.011L844.151,115.35L844.157,115.686L844.159,116.022L844.157,116.356L844.152,116.688L844.144,117.02L844.131,117.349L844.115,117.677L844.095,118.004L844.072,118.329L844.045,118.652L844.015,118.974L843.981,119.294L843.943,119.613L843.902,119.93L843.858,120.245L843.81,120.558L843.758,120.87L843.703,121.181L843.645,121.489L843.583,121.796L843.518,122.101L843.45,122.404L843.378,122.705L843.303,123.004L843.225,123.302L843.144,123.598L843.06,123.891L842.972,124.183L842.881,124.473L842.788,124.761L842.691,125.047L842.591,125.331L842.488,125.613L842.383,125.893L842.274,126.171L842.163,126.447L842.049,126.721L841.932,126.993L841.812,127.263L841.69,127.53L841.565,127.796L841.438,128.059L841.308,128.321L841.176,128.58L841.041,128.837L840.903,129.092L840.764,129.345L840.622,129.596L840.478,129.844L840.331,130.091L840.183,130.335L840.032,130.577L839.879,130.817L839.724,131.055L839.567,131.291L839.408,131.525L839.248,131.757L839.085,131.986L838.921,132.214L838.754,132.439L838.586,132.663L838.416,132.884L838.245,133.103L838.072,133.32L837.897,133.536L837.721,133.749L837.543,133.96L837.364,134.169L837.183,134.376L837.001,134.582L836.818,134.785L836.633,134.986L836.447,135.186L836.26,135.383L836.071,135.579L835.882,135.773L835.691,135.965L835.499,136.155L835.306,136.344L835.111,136.53L834.916,136.715L834.72,136.898L834.523,137.079L834.325,137.259L834.126,137.436L833.926,137.613L833.726,137.787L833.524,137.96L833.322,138.131L833.119,138.3L832.915,138.468L832.711,138.635L832.505,138.799L832.3,138.962L832.093,139.124L831.886,139.284L831.679,139.443L831.471,139.6L831.262,139.756L831.053,139.91L830.844,140.063L830.634,140.214L830.423,140.364L830.212,140.512L830.001,140.66L829.79,140.805L829.578,140.95L829.366,141.093L829.154,141.235L828.941,141.375L828.728,141.515L828.515,141.653L828.302,141.789L828.089,141.925L827.876,142.059L827.662,142.192L827.449,142.324L827.235,142.455L827.022,142.584L826.808,142.713L826.594,142.84L826.381,142.966L826.167,143.091L825.954,143.215L825.741,143.338L825.524,143.462L825.102,143.7L824.677,143.937L824.253,144.169L823.831,144.398L823.41,144.622L822.99,144.843L822.572,145.06L822.156,145.274L821.742,145.484L821.331,145.691L820.922,145.895L820.516,146.095L820.113,146.292L819.713,146.486L819.316,146.677L818.923,146.866L818.532,147.052L817.768,147.413L817.019,147.764L815.581,148.437L814.896,148.759L814.233,149.073L813.915,149.224L813.603,149.375L813.297,149.523L812.999,149.668L812.71,149.812L812.428,149.952L812.155,150.091L811.892,150.226L811.637,150.359L811.392,150.49L811.157,150.617L810.927,150.745L810.824,150.802L810.719,150.862L810.617,150.922L810.517,150.98L810.42,151.037L810.326,151.093L810.236,151.148L810.148,151.203L810.064,151.255L809.983,151.307L809.905,151.358L809.83,151.407L809.759,151.454L809.692,151.5L809.628,151.545L809.558,151.595L809.054,151.957L808.544,152.324L808.037,152.69L807.534,153.055L807.034,153.419L806.537,153.782L806.043,154.143L805.552,154.503L805.064,154.862L804.58,155.219L803.618,155.931L802.668,156.638L801.73,157.339L800.803,158.035L799.887,158.726L798.981,159.411L798.085,160.091L797.199,160.766L796.322,161.434L795.455,162.097L794.597,162.754L792.906,164.051L791.248,165.323L789.622,166.569L788.819,167.184L788.022,167.791L787.233,168.393L786.449,168.987L785.671,169.575L784.899,170.156L784.132,170.73L783.37,171.297L782.614,171.855L782.235,172.134L781.859,172.41L781.484,172.683L781.11,172.955L780.737,173.225L780.364,173.493L779.993,173.76L779.622,174.024L779.253,174.287L778.884,174.548L778.515,174.806L778.147,175.063L777.78,175.318L777.414,175.571L777.048,175.822L776.682,176.071L776.317,176.318L775.953,176.563L775.589,176.806L775.225,177.047L774.861,177.286L774.498,177.523L774.135,177.758L773.772,177.99L773.41,178.221L773.047,178.449L772.684,178.676L772.322,178.9L771.96,179.121L771.597,179.341L771.234,179.559L770.872,179.774L770.509,179.987L770.146,180.197L769.783,180.406L769.419,180.612L769.055,180.815L768.691,181.017L768.327,181.215L767.962,181.412L767.596,181.606L767.23,181.797L766.864,181.987L766.497,182.173L766.13,182.357L765.761,182.539L765.393,182.717L765.023,182.894L764.653,183.067L764.282,183.238L763.91,183.406L763.538,183.572L763.165,183.735L762.79,183.895L762.415,184.052L762.039,184.206L761.663,184.358L761.285,184.506L760.906,184.652L760.526,184.795L760.145,184.934L759.763,185.071L759.38,185.205L758.996,185.335L758.611,185.463L758.224,185.587L757.837,185.708L757.448,185.826L757.064,185.939L756.863,185.997L756.667,186.053L756.471,186.107L756.275,186.161L756.078,186.214L755.881,186.266L755.684,186.317L755.486,186.368L755.289,186.417L755.09,186.466L754.892,186.514L754.693,186.561L754.494,186.607L754.295,186.653L754.095,186.697L753.895,186.741L753.694,186.783L753.494,186.825L753.293,186.866L753.091,186.907L752.889,186.946L752.687,186.984L752.485,187.022L752.282,187.059L752.079,187.094L751.876,187.129L751.672,187.163L751.468,187.196ZM750.006,176.083L750.16,176.057L750.313,176.03L750.466,176.002L750.619,175.974L750.772,175.945L750.924,175.915L751.076,175.885L751.228,175.854L751.38,175.822L751.532,175.79L751.683,175.757L751.834,175.723L751.985,175.689L752.136,175.654L752.287,175.618L752.438,175.581L752.588,175.544L752.739,175.507L752.889,175.468L753.039,175.429L753.19,175.39L753.34,175.349L753.489,175.308L753.639,175.266L753.789,175.224L753.933,175.183L754.238,175.093L754.537,175.002L754.836,174.909L755.134,174.813L755.433,174.714L755.731,174.612L756.03,174.508L756.328,174.401L756.627,174.292L756.926,174.179L757.225,174.064L757.524,173.947L757.824,173.826L758.123,173.703L758.424,173.578L758.724,173.449L759.025,173.318L759.326,173.184L759.628,173.048L759.93,172.908L760.233,172.766L760.537,172.621L760.841,172.474L761.145,172.324L761.451,172.171L761.757,172.015L762.064,171.857L762.371,171.696L762.68,171.532L762.989,171.366L763.299,171.197L763.61,171.025L763.921,170.85L764.234,170.673L764.548,170.493L764.863,170.311L765.178,170.125L765.495,169.937L765.813,169.747L766.132,169.553L766.452,169.358L766.773,169.159L767.095,168.958L767.419,168.754L767.744,168.548L768.07,168.339L768.397,168.127L768.725,167.913L769.055,167.696L769.387,167.477L769.719,167.255L770.053,167.03L770.388,166.803L770.725,166.574L771.064,166.342L771.403,166.107L771.745,165.87L772.087,165.631L772.432,165.389L772.778,165.144L773.125,164.898L773.475,164.648L773.826,164.397L774.178,164.143L774.532,163.886L774.888,163.627L775.246,163.366L775.606,163.103L775.965,162.838L776.696,162.298L777.432,161.751L778.175,161.194L778.927,160.629L779.687,160.055L780.455,159.472L781.232,158.881L782.018,158.281L782.812,157.674L784.431,156.433L786.087,155.162L787.783,153.861L788.648,153.199L789.523,152.53L790.409,151.854L791.306,151.171L792.215,150.482L793.136,149.785L794.069,149.082L795.013,148.373L795.971,147.658L796.94,146.936L797.922,146.209L798.419,145.842L798.919,145.475L799.422,145.106L799.928,144.735L800.438,144.363L800.951,143.99L801.468,143.616L801.988,143.24L802.511,142.862L803.048,142.477L803.185,142.38L803.333,142.277L803.481,142.176L803.629,142.076L803.778,141.978L803.928,141.881L804.078,141.786L804.229,141.691L804.38,141.597L804.532,141.505L804.685,141.413L804.839,141.322L804.993,141.232L805.147,141.143L805.303,141.055L805.465,140.964L805.773,140.793L806.09,140.621L806.411,140.45L806.734,140.281L807.06,140.113L807.389,139.947L807.721,139.781L808.055,139.615L808.393,139.45L808.733,139.285L809.076,139.12L809.424,138.954L810.119,138.625L810.826,138.293L812.265,137.62L812.994,137.278L813.731,136.93L814.097,136.755L814.466,136.579L814.836,136.4L815.206,136.221L815.577,136.039L815.948,135.857L816.318,135.672L816.689,135.486L817.059,135.298L817.428,135.108L817.797,134.916L818.165,134.723L818.532,134.527L818.897,134.329L819.261,134.13L819.624,133.928L819.989,133.722L820.164,133.622L820.343,133.518L820.522,133.415L820.7,133.31L820.877,133.206L821.054,133.1L821.23,132.994L821.406,132.888L821.581,132.781L821.755,132.673L821.928,132.565L822.101,132.457L822.273,132.347L822.444,132.237L822.614,132.127L822.784,132.016L822.952,131.905L823.12,131.793L823.287,131.68L823.453,131.567L823.618,131.453L823.782,131.339L823.945,131.224L824.107,131.108L824.268,130.992L824.428,130.875L824.587,130.758L824.745,130.64L824.902,130.522L825.057,130.403L825.212,130.284L825.365,130.164L825.517,130.043L825.668,129.922L825.818,129.8L825.966,129.677L826.114,129.555L826.26,129.431L826.404,129.307L826.548,129.182L826.69,129.057L826.83,128.932L826.97,128.805L827.108,128.678L827.244,128.551L827.379,128.423L827.513,128.294L827.645,128.165L827.776,128.036L827.906,127.906L828.034,127.775L828.16,127.643L828.285,127.512L828.409,127.379L828.531,127.246L828.651,127.113L828.77,126.979L828.888,126.844L829.003,126.709L829.118,126.573L829.23,126.437L829.342,126.3L829.451,126.162L829.559,126.024L829.665,125.885L829.77,125.746L829.873,125.606L829.975,125.466L830.075,125.325L830.173,125.183L830.27,125.041L830.365,124.898L830.459,124.754L830.55,124.61L830.641,124.465L830.729,124.319L830.816,124.173L830.902,124.026L830.985,123.878L831.067,123.729L831.148,123.58L831.226,123.43L831.303,123.279L831.379,123.127L831.453,122.974L831.525,122.821L831.595,122.666L831.664,122.511L831.731,122.355L831.797,122.198L831.861,122.039L831.923,121.88L831.983,121.72L832.042,121.558L832.099,121.395L832.155,121.232L832.208,121.067L832.26,120.901L832.311,120.733L832.359,120.565L832.406,120.394L832.451,120.223L832.494,120.05L832.536,119.876L832.575,119.7L832.613,119.523L832.649,119.344L832.683,119.164L832.715,118.982L832.745,118.799L832.774,118.613L832.8,118.426L832.825,118.238L832.847,118.047L832.868,117.855L832.886,117.66L832.902,117.464L832.916,117.266L832.928,117.066L832.938,116.864L832.946,116.66L832.952,116.454L832.955,116.246L832.956,116.035L832.954,115.823L832.95,115.608L832.944,115.391L832.936,115.172L832.925,114.95L832.911,114.727L832.895,114.5L832.876,114.272L832.855,114.041L832.831,113.808L832.804,113.573L832.775,113.335L832.742,113.094L832.707,112.851L832.669,112.606L832.629,112.358L832.585,112.107L832.538,111.855L832.489,111.599L832.436,111.341L832.38,111.08L832.321,110.817L832.259,110.551L832.194,110.283L832.125,110.012L832.053,109.738L831.978,109.462L831.9,109.183L831.818,108.901L831.732,108.617L831.644,108.33L831.551,108.04L831.456,107.748L831.343,107.415L831.285,107.237L831.218,107.021L831.157,106.806L831.1,106.592L831.048,106.379L831,106.167L830.956,105.957L830.916,105.747L830.88,105.538L830.847,105.331L830.817,105.124L830.791,104.919L830.768,104.715L830.748,104.512L830.73,104.309L830.716,104.108L830.703,103.907L830.693,103.707L830.686,103.508L830.681,103.31L830.677,103.112L830.676,102.915L830.677,102.719L830.679,102.522L830.683,102.327L830.689,102.131L830.697,101.936L830.706,101.742L830.716,101.547L830.728,101.353L830.742,101.158L830.757,100.964L830.773,100.77L830.79,100.576L830.808,100.382L830.828,100.188L830.849,99.993L830.87,99.799L830.893,99.604L830.917,99.409L830.941,99.214L830.968,99.013L831.021,98.628L831.078,98.234L831.138,97.84L831.201,97.444L831.266,97.045L831.334,96.645L831.405,96.243L831.477,95.839L831.551,95.432L831.626,95.023L831.704,94.61L831.861,93.784L832.022,92.944L832.185,92.094L832.35,91.232L832.432,90.8L832.514,90.364L832.596,89.925L832.677,89.485L832.757,89.041L832.836,88.596L832.915,88.147L832.992,87.697L833.067,87.245L833.141,86.79L833.214,86.333L833.284,85.874L833.353,85.412L833.419,84.949L833.483,84.484L833.545,84.013L833.575,83.782L833.604,83.548L833.632,83.312L833.66,83.077L833.687,82.841L833.713,82.604L833.738,82.367L833.763,82.13L833.787,81.892L833.81,81.654L833.832,81.415L833.853,81.176L833.874,80.937L833.893,80.697L833.912,80.457L833.93,80.217L833.946,79.976L833.962,79.735L833.977,79.493L833.99,79.252L834.003,79.009L834.015,78.767L834.025,78.524L834.035,78.281L834.043,78.038L834.05,77.794L834.056,77.55L834.061,77.306L834.065,77.061L834.068,76.816L834.069,76.571L834.069,76.326L834.068,76.08L834.066,75.834L834.062,75.588L834.057,75.342L834.051,75.095L834.044,74.849L834.035,74.602L834.024,74.355L834.013,74.107L834,73.86L833.985,73.612L833.969,73.364L833.952,73.116L833.933,72.867L833.913,72.619L833.891,72.37L833.867,72.121L833.843,71.872L833.816,71.623L833.788,71.374L833.758,71.124L833.727,70.875L833.694,70.625L833.66,70.375L833.624,70.125L833.586,69.875L833.546,69.624L833.505,69.374L833.462,69.123L833.417,68.872L833.371,68.621L833.323,68.37L833.272,68.119L833.221,67.868L833.167,67.616L833.111,67.365L833.054,67.113L832.994,66.861L832.933,66.609L832.869,66.357L832.804,66.105L832.737,65.853L832.668,65.6L832.596,65.348L832.523,65.095L832.448,64.842L832.37,64.589L832.291,64.336L832.209,64.083L832.125,63.83L832.039,63.576L831.951,63.323L831.861,63.069L831.768,62.815L831.673,62.561L831.576,62.307L831.476,62.052L831.375,61.798L831.27,61.543L831.164,61.289L831.055,61.034L830.944,60.779L830.83,60.523L830.713,60.268L830.595,60.012L830.473,59.757L830.349,59.501L830.223,59.245L830.094,58.989L829.962,58.732L829.828,58.476L829.691,58.219L829.551,57.962L829.409,57.705L829.263,57.448L829.115,57.19L828.965,56.933L828.811,56.675L828.654,56.417L828.495,56.159L828.332,55.901L828.167,55.642L827.999,55.384L827.827,55.125L827.653,54.866L827.476,54.607L827.295,54.348L827.111,54.088L826.924,53.829L826.734,53.569L826.541,53.309L826.344,53.049L826.144,52.789L825.941,52.528L825.735,52.268L825.525,52.007L825.311,51.746L825.095,51.485L824.874,51.224L824.651,50.963L824.423,50.702L824.193,50.44L823.958,50.179L823.72,49.917L823.479,49.655L823.233,49.393L822.984,49.131L822.731,48.869L822.475,48.607L822.215,48.345L821.951,48.083L821.673,47.811L821.456,47.599L821.226,47.374L820.771,46.926L820.312,46.468L819.85,46.005L819.387,45.535L818.921,45.059L818.453,44.579L817.983,44.093L817.511,43.602L817.038,43.106L816.563,42.607L816.086,42.104L815.608,41.596L815.129,41.086L814.649,40.573L814.167,40.057L813.685,39.539L813.201,39.018L812.234,37.973L811.264,36.924L810.294,35.873L809.325,34.823L808.358,33.777L807.393,32.737L806.914,32.221L806.435,31.708L805.958,31.197L805.482,30.69L805.008,30.187L804.536,29.687L804.067,29.192L803.6,28.702L803.135,28.217L802.673,27.738L802.214,27.265L801.758,26.797L801.306,26.337L800.857,25.883L800.412,25.437L799.971,24.999L799.531,24.566L799.317,24.357L799.101,24.147L798.887,23.939L798.674,23.734L798.462,23.531L798.251,23.331L798.042,23.133L797.834,22.937L797.627,22.744L797.422,22.554L797.218,22.366L797.016,22.181L796.815,21.999L796.616,21.819L796.419,21.642L796.223,21.469L796.029,21.298L795.836,21.13L795.646,20.965L795.457,20.804L795.271,20.646L795.086,20.49L794.903,20.338L794.723,20.19L794.545,20.045L794.369,19.903L794.195,19.765L794.023,19.631L793.854,19.5L793.688,19.373L793.524,19.249L793.363,19.13L793.205,19.014L793.038,18.894L792.727,18.671L792.409,18.443L791.802,18.004L791.219,17.579L790.661,17.169L790.128,16.776L789.617,16.398L788.653,15.684L788.2,15.35L787.762,15.03L787.335,14.72L787.131,14.573L786.927,14.427L786.726,14.284L786.527,14.144L786.33,14.007L786.136,13.873L785.943,13.741L785.751,13.611L785.56,13.483L785.37,13.358L785.181,13.235L784.991,13.113L784.802,12.993L784.612,12.874L784.421,12.757L784.229,12.64L784.035,12.525L783.839,12.41L783.641,12.297L783.441,12.183L783.237,12.07L783.03,11.957L782.82,11.844L782.605,11.731L782.386,11.618L782.162,11.504L781.933,11.39L781.699,11.275L781.459,11.16L781.213,11.043L780.96,10.926L780.701,10.808L780.435,10.689L780.162,10.569L779.881,10.448L779.592,10.325L779.295,10.201L778.99,10.075L778.676,9.948L778.353,9.82L778.021,9.689L777.68,9.557L777.529,9.5L777.378,9.443L777.227,9.387L777.076,9.332L776.925,9.278L776.775,9.224L776.624,9.172L776.474,9.12L776.324,9.069L776.174,9.019L776.024,8.97L775.874,8.922L775.725,8.874L775.575,8.827L775.426,8.781L775.276,8.736L775.127,8.691L774.978,8.648L774.829,8.605L774.68,8.563L774.532,8.521L774.383,8.481L774.235,8.441L774.086,8.402L773.938,8.363L773.79,8.326L773.642,8.289L773.494,8.253L773.346,8.217L773.198,8.182L773.05,8.148L772.903,8.115L772.755,8.082L772.608,8.05L772.46,8.019L772.319,7.99L772.018,7.93L771.724,7.873L771.431,7.819L771.137,7.768L770.844,7.72L770.551,7.674L770.258,7.63L769.966,7.589L769.673,7.551L769.381,7.515L769.089,7.481L768.797,7.449L768.506,7.42L768.214,7.393L767.923,7.369L767.632,7.347L767.341,7.326L767.05,7.308L766.76,7.292L766.469,7.279L766.179,7.267L765.889,7.257L765.598,7.249L765.308,7.243L765.018,7.239L764.729,7.237L764.439,7.237L764.149,7.239L763.859,7.242L763.57,7.248L763.281,7.255L762.991,7.263L762.702,7.274L762.413,7.286L762.124,7.299L761.835,7.314L761.546,7.331L761.257,7.349L760.968,7.369L760.68,7.39L760.391,7.412L760.103,7.436L759.814,7.462L759.526,7.488L759.238,7.516L758.95,7.545L758.662,7.575L758.374,7.607L758.086,7.639L757.798,7.673L757.511,7.708L757.223,7.743L756.936,7.78L756.648,7.818L756.361,7.856L756.074,7.896L755.787,7.936L755.5,7.977L755.213,8.019L754.93,8.062L754.354,8.149L753.781,8.239L753.209,8.332L752.638,8.426L752.067,8.521L751.496,8.618L750.927,8.716L749.786,8.913L748.651,9.11L748.082,9.208L747.514,9.304L746.947,9.4L746.379,9.493L745.812,9.584L745.245,9.673L744.682,9.758L744.395,9.801L744.111,9.842L743.828,9.881L743.544,9.92L743.26,9.958L742.976,9.995L742.692,10.031L742.408,10.066L742.124,10.099L741.84,10.131L741.555,10.162L741.271,10.191L740.986,10.219L740.696,10.246L740.522,10.26L740.342,10.274L740.163,10.286L739.984,10.296L739.806,10.305L739.628,10.312L739.449,10.318L739.271,10.323L739.094,10.327L738.916,10.329L738.738,10.33L738.56,10.33L738.382,10.329L738.204,10.327L738.026,10.324L737.841,10.32L737.491,10.31L737.133,10.296L736.773,10.279L736.413,10.259L736.051,10.237L735.688,10.212L735.323,10.184L734.956,10.155L734.587,10.124L734.217,10.091L733.845,10.057L733.471,10.021L733.095,9.984L732.715,9.946L731.957,9.867L731.188,9.786L730.412,9.703L729.629,9.62L728.837,9.537L728.442,9.497L728.043,9.457L727.643,9.418L727.242,9.38L726.839,9.343L726.436,9.307L726.031,9.272L725.625,9.238L725.219,9.206L724.811,9.176L724.403,9.148L723.994,9.121L723.585,9.096L723.175,9.074L722.765,9.054L722.355,9.036L721.944,9.021L721.529,9.008L721.328,9.003L721.123,8.998L720.918,8.994L720.712,8.991L720.507,8.988L720.302,8.987L720.097,8.986L719.892,8.986L719.687,8.986L719.483,8.988L719.278,8.99L719.074,8.993L718.87,8.997L718.666,9.002L718.462,9.007L718.258,9.014L718.055,9.021L717.852,9.03L717.649,9.039L717.446,9.049L717.244,9.061L717.042,9.073L716.84,9.086L716.638,9.1L716.437,9.115L716.236,9.131L716.035,9.148L715.835,9.166L715.636,9.186L715.436,9.206L715.237,9.227L715.038,9.25L714.84,9.273L714.642,9.298L714.445,9.323L714.248,9.35L714.051,9.378L713.855,9.407L713.66,9.437L713.465,9.469L713.27,9.501L713.076,9.535L712.882,9.57L712.689,9.606L712.497,9.643L712.305,9.682L712.113,9.722L711.922,9.763L711.732,9.805L711.542,9.849L711.353,9.894L711.165,9.94L710.977,9.987L710.789,10.036L710.602,10.086L710.416,10.137L710.231,10.19L710.045,10.244L709.861,10.299L709.678,10.356L709.494,10.414L709.312,10.474L709.13,10.535L708.949,10.597L708.768,10.661L708.588,10.726L708.409,10.792L708.231,10.86L708.053,10.93L707.875,11.001L707.699,11.073L707.523,11.147L707.347,11.223L707.173,11.3L706.998,11.379L706.825,11.459L706.652,11.54L706.48,11.624L706.309,11.708L706.138,11.795L705.967,11.883L705.798,11.973L705.629,12.065L705.46,12.158L705.292,12.253L705.125,12.349L704.959,12.448L704.793,12.548L704.627,12.65L704.462,12.753L704.298,12.859L704.135,12.966L703.972,13.076L703.809,13.187L703.647,13.3L703.486,13.415L703.325,13.532L703.165,13.651L703.005,13.772L702.846,13.895L702.687,14.021L702.529,14.148L702.372,14.277L702.215,14.409L702.058,14.543L701.902,14.679L701.747,14.817L701.592,14.958L701.438,15.101L701.284,15.246L701.13,15.394L700.978,15.543L700.825,15.696L700.674,15.851L700.523,16.008L700.372,16.168L700.222,16.331L700.072,16.496L699.923,16.664L699.775,16.834L699.627,17.007L699.479,17.183L699.333,17.362L699.186,17.543L699.041,17.727L698.895,17.914L698.751,18.104L698.607,18.297L698.464,18.493L698.321,18.692L698.179,18.894L698.038,19.099L697.897,19.307L697.757,19.518L697.618,19.733L697.479,19.95L697.341,20.171L697.204,20.395L697.067,20.622L696.931,20.853L696.796,21.087L696.662,21.325L696.529,21.565L696.396,21.809L696.264,22.057L696.133,22.308L696.003,22.563L695.874,22.821L695.745,23.083L695.618,23.348L695.491,23.617L695.365,23.89L695.241,24.166L695.117,24.446L694.994,24.73L694.874,25.014L694.859,25.052L694.793,25.206L694.701,25.415L694.638,25.554L694.57,25.701L694.495,25.864L694.41,26.042L694.317,26.236L694.215,26.445L694.104,26.669L693.983,26.909L693.853,27.164L693.713,27.435L693.562,27.721L693.402,28.024L693.23,28.341L693.048,28.675L692.855,29.024L692.65,29.388L692.434,29.769L692.205,30.165L691.965,30.577L691.713,31.005L691.448,31.449L691.17,31.909L690.879,32.385L690.575,32.877L690.257,33.385L689.928,33.906L689.755,34.176L689.58,34.448L689.402,34.725L689.221,35.005L689.035,35.289L688.846,35.577L688.654,35.869L688.458,36.165L688.258,36.466L688.054,36.77L687.846,37.078L687.635,37.391L687.419,37.708L687.2,38.028L686.977,38.353L686.75,38.682L686.519,39.015L686.284,39.352L686.045,39.693L685.802,40.038L685.554,40.387L685.303,40.741L685.047,41.098L684.788,41.46L684.524,41.826L684.255,42.196L683.983,42.57L683.706,42.948L683.425,43.33L683.139,43.717L682.849,44.107L682.555,44.502L682.256,44.901L681.953,45.304L681.645,45.711L681.332,46.123L681.015,46.538L680.694,46.958L680.367,47.382L680.036,47.81L679.701,48.242L679.36,48.679L679.015,49.12L678.665,49.564L678.31,50.014L677.951,50.467L677.586,50.924L677.216,51.386L676.842,51.852L676.463,52.322L676.078,52.797L675.689,53.276L675.294,53.758L674.894,54.246L674.49,54.737L674.08,55.233L673.664,55.733L673.244,56.237L672.818,56.745L672.387,57.258L671.951,57.775L671.51,58.296L671.063,58.821L670.615,59.345L670.202,59.83L670.004,60.064L669.806,60.299L669.61,60.533L669.416,60.765L669.225,60.997L669.035,61.227L668.848,61.456L668.663,61.684L668.48,61.911L668.299,62.137L668.121,62.362L667.945,62.586L667.771,62.81L667.599,63.032L667.43,63.254L667.263,63.476L667.098,63.696L666.936,63.916L666.776,64.136L666.618,64.355L666.462,64.574L666.309,64.792L666.159,65.01L666.01,65.228L665.864,65.446L665.72,65.663L665.579,65.88L665.44,66.098L665.303,66.315L665.169,66.532L665.037,66.75L664.907,66.968L664.779,67.186L664.654,67.404L664.531,67.623L664.41,67.842L664.291,68.062L664.175,68.283L664.061,68.504L663.949,68.726L663.839,68.949L663.731,69.174L663.626,69.399L663.523,69.625L663.419,69.859L663.372,69.967L663.322,70.081L663.274,70.196L663.226,70.312L663.178,70.428L663.131,70.544L663.084,70.66L663.038,70.777L662.993,70.894L662.948,71.012L662.904,71.13L662.86,71.249L662.816,71.369L662.773,71.488L662.731,71.608L662.689,71.729L662.648,71.85L662.607,71.972L662.567,72.095L662.527,72.217L662.488,72.341L662.45,72.465L662.412,72.589L662.374,72.715L662.337,72.841L662.301,72.968L662.265,73.095L662.229,73.223L662.195,73.351L662.16,73.48L662.127,73.61L662.093,73.741L662.061,73.872L662.029,74.005L661.997,74.138L661.966,74.271L661.936,74.406L661.906,74.541L661.877,74.677L661.848,74.814L661.82,74.952L661.792,75.09L661.765,75.23L661.739,75.37L661.713,75.512L661.688,75.653L661.663,75.796L661.639,75.94L661.615,76.085L661.593,76.231L661.57,76.378L661.549,76.525L661.528,76.674L661.507,76.823L661.487,76.974L661.468,77.126L661.45,77.278L661.432,77.432L661.415,77.587L661.398,77.742L661.382,77.899L661.367,78.057L661.352,78.216L661.338,78.376L661.325,78.537L661.312,78.699L661.3,78.862L661.289,79.026L661.279,79.192L661.269,79.359L661.26,79.527L661.251,79.696L661.243,79.866L661.236,80.037L661.23,80.21L661.224,80.384L661.219,80.559L661.215,80.735L661.212,80.912L661.209,81.091L661.207,81.271L661.206,81.452L661.206,81.634L661.206,81.818L661.207,82.003L661.209,82.189L661.212,82.377L661.215,82.566L661.22,82.756L661.225,82.947L661.231,83.14L661.237,83.334L661.245,83.529L661.253,83.726L661.262,83.924L661.272,84.124L661.283,84.324L661.294,84.527L661.307,84.73L661.32,84.935L661.334,85.141L661.349,85.349L661.365,85.559L661.382,85.769L661.399,85.981L661.418,86.195L661.437,86.409L661.457,86.626L661.478,86.844L661.5,87.063L661.523,87.283L661.547,87.505L661.572,87.729L661.597,87.954L661.624,88.181L661.651,88.409L661.68,88.638L661.709,88.869L661.739,89.102L661.77,89.336L661.802,89.572L661.835,89.809L661.869,90.048L661.904,90.288L661.94,90.53L661.977,90.773L662.015,91.018L662.053,91.26L662.134,91.762L662.219,92.266L662.307,92.777L662.4,93.293L662.496,93.817L662.597,94.347L662.701,94.883L662.81,95.426L662.923,95.976L663.04,96.532L663.161,97.095L663.287,97.666L663.416,98.242L663.55,98.826L663.689,99.417L663.831,100.015L663.98,100.625L664.339,102.089L664.696,103.538L665.05,104.966L665.4,106.374L665.748,107.763L665.92,108.447L666.093,109.128L666.265,109.804L666.437,110.475L666.608,111.14L666.779,111.801L666.95,112.457L667.121,113.107L667.292,113.753L667.463,114.394L667.634,115.03L667.805,115.661L667.977,116.287L668.148,116.908L668.32,117.524L668.493,118.135L668.665,118.742L668.839,119.344L669.012,119.941L669.187,120.533L669.362,121.12L669.538,121.703L669.714,122.281L669.892,122.854L670.07,123.423L670.25,123.986L670.43,124.546L670.611,125.1L670.794,125.65L670.977,126.196L671.162,126.736L671.349,127.273L671.536,127.804L671.726,128.335L671.82,128.594L671.915,128.854L672.011,129.114L672.107,129.373L672.204,129.63L672.301,129.887L672.398,130.142L672.496,130.396L672.594,130.649L672.692,130.901L672.791,131.152L672.89,131.402L672.99,131.651L673.091,131.899L673.191,132.145L673.293,132.391L673.394,132.635L673.496,132.879L673.599,133.121L673.702,133.363L673.806,133.603L673.91,133.842L674.014,134.08L674.119,134.318L674.225,134.554L674.331,134.789L674.438,135.023L674.545,135.256L674.653,135.488L674.761,135.72L674.87,135.95L674.98,136.179L675.09,136.407L675.2,136.634L675.311,136.86L675.423,137.085L675.536,137.31L675.649,137.533L675.762,137.755L675.877,137.977L675.991,138.197L676.107,138.416L676.223,138.635L676.34,138.853L676.457,139.069L676.576,139.285L676.694,139.5L676.814,139.714L676.934,139.927L677.055,140.139L677.176,140.351L677.299,140.561L677.422,140.771L677.546,140.979L677.67,141.187L677.795,141.394L677.921,141.6L678.048,141.806L678.176,142.01L678.304,142.214L678.433,142.417L678.563,142.619L678.693,142.82L678.825,143.02L678.957,143.22L679.09,143.419L679.224,143.617L679.359,143.814L679.495,144.011L679.632,144.207L679.769,144.402L679.907,144.596L680.046,144.789L680.187,144.982L680.328,145.175L680.47,145.366L680.612,145.557L680.756,145.747L680.901,145.936L681.047,146.125L681.193,146.313L681.341,146.5L681.49,146.686L681.64,146.873L681.79,147.058L681.942,147.243L682.095,147.427L682.249,147.61L682.403,147.793L682.559,147.975L682.716,148.157L682.875,148.338L683.034,148.518L683.194,148.698L683.355,148.877L683.518,149.056L683.682,149.234L683.847,149.412L684.013,149.589L684.18,149.765L684.348,149.941L684.518,150.117L684.689,150.292L684.861,150.466L685.034,150.64L685.209,150.813L685.384,150.986L685.562,151.158L685.74,151.33L685.92,151.502L686.101,151.672L686.283,151.843L686.466,152.013L686.652,152.182L686.838,152.351L687.025,152.52L687.215,152.688L687.405,152.856L687.597,153.023L687.79,153.189L687.985,153.356L688.181,153.522L688.379,153.687L688.578,153.852L688.778,154.017L688.98,154.181L689.184,154.345L689.389,154.509L689.596,154.672L689.804,154.834L690.013,154.997L690.224,155.159L690.437,155.32L690.651,155.481L690.867,155.642L691.085,155.802L691.304,155.963L691.525,156.122L691.747,156.281L691.972,156.44L692.197,156.599L692.425,156.757L692.654,156.915L692.884,157.073L693.117,157.23L693.351,157.387L693.587,157.543L693.825,157.699L694.064,157.855L694.305,158.011L694.548,158.166L694.793,158.321L695.04,158.475L695.288,158.63L695.538,158.783L695.79,158.937L696.044,159.09L696.299,159.243L696.557,159.396L696.816,159.548L697.077,159.7L697.341,159.852L697.606,160.003L697.873,160.154L698.141,160.305L698.412,160.456L698.685,160.606L698.961,160.757L699.631,161.12L700.298,161.479L700.96,161.833L701.617,162.183L702.269,162.529L702.916,162.869L703.559,163.205L704.197,163.537L704.83,163.864L705.458,164.186L706.082,164.504L706.701,164.817L707.316,165.126L707.926,165.43L708.531,165.73L709.132,166.025L709.729,166.315L710.32,166.602L710.908,166.883L711.491,167.161L712.07,167.434L712.644,167.702L713.214,167.966L713.78,168.226L714.341,168.481L714.898,168.732L715.451,168.979L715.999,169.221L716.544,169.459L717.084,169.693L717.62,169.923L718.152,170.148L718.68,170.369L719.204,170.586L719.724,170.798L720.24,171.006L720.752,171.211L721.26,171.411L721.764,171.606L722.264,171.798L722.76,171.986L723.252,172.169L723.741,172.349L724.225,172.524L724.706,172.695L725.184,172.862L725.657,173.026L726.127,173.185L726.593,173.34L727.055,173.492L727.514,173.639L727.969,173.783L728.421,173.922L728.869,174.058L729.314,174.19L729.755,174.318L730.193,174.442L730.627,174.563L731.058,174.68L731.486,174.793L731.91,174.902L732.331,175.007L732.749,175.109L733.168,175.209L733.369,175.255L733.574,175.302L733.779,175.348L733.982,175.393L734.185,175.437L734.387,175.48L734.588,175.523L734.789,175.564L734.989,175.605L735.188,175.645L735.386,175.683L735.583,175.721L735.78,175.758L735.976,175.795L736.171,175.83L736.366,175.864L736.559,175.898L736.752,175.931L736.945,175.963L737.136,175.994L737.327,176.024L737.517,176.053L737.707,176.082L737.895,176.11L738.083,176.136L738.271,176.163L738.457,176.188L738.643,176.212L738.829,176.236L739.013,176.258L739.197,176.28L739.38,176.301L739.563,176.322L739.745,176.341L739.926,176.36L740.107,176.378L740.287,176.395L740.467,176.411L740.645,176.426L740.824,176.441L741.001,176.455L741.178,176.468L741.354,176.48L741.53,176.492L741.705,176.503L741.88,176.513L742.054,176.522L742.227,176.53L742.4,176.538L742.573,176.545L742.744,176.551L742.916,176.557L743.086,176.561L743.256,176.565L743.426,176.569L743.595,176.571L743.764,176.573L743.932,176.574L744.099,176.574L744.266,176.573L744.433,176.572L744.599,176.57L744.765,176.567L744.93,176.564L745.094,176.56L745.259,176.555L745.422,176.549L745.586,176.543L745.749,176.536L745.911,176.528L746.073,176.52L746.235,176.511L746.396,176.501L746.557,176.49L746.717,176.479L746.877,176.467L747.037,176.454L747.196,176.441L747.355,176.427L747.513,176.412L747.671,176.397L747.829,176.381L747.987,176.364L748.144,176.346L748.301,176.328L748.457,176.309L748.613,176.29L748.769,176.27L748.925,176.249L749.08,176.227L749.235,176.205L749.39,176.182L749.545,176.158L749.699,176.134L749.853,176.109L750.006,176.083Z" style="fill:white;"/>
    </g>
</svg>
