<?xml version="1.0" encoding="UTF-8" standalone="no"?>
<!DOCTYPE svg PUBLIC "-//W3C//DTD SVG 1.1//EN" "http://www.w3.org/Graphics/SVG/1.1/DTD/svg11.dtd">
<svg width="100%" height="100%" viewBox="0 0 218 214" version="1.1" xmlns="http://www.w3.org/2000/svg" xmlns:xlink="http://www.w3.org/1999/xlink" xml:space="preserve" xmlns:serif="http://www.serif.com/" style="fill-rule:evenodd;clip-rule:evenodd;stroke-linejoin:round;stroke-miterlimit:1.41421;">
    <g transform="matrix(-0.947517,-0.155167,0.155167,-0.947517,803.879,309.669)">
        <path d="M761.75,187.248L761.314,187.316L760.879,187.38L760.442,187.442L760.004,187.5L759.566,187.555L759.127,187.608L758.687,187.657L758.246,187.703L757.805,187.746L757.362,187.786L756.919,187.823L756.475,187.857L756.029,187.888L755.583,187.916L755.136,187.94L754.688,187.962L754.24,187.98L753.79,187.996L753.339,188.008L752.887,188.017L752.434,188.023L751.98,188.026L751.525,188.026L751.07,188.022L750.613,188.016L750.155,188.007L749.695,187.994L749.235,187.978L748.774,187.959L748.311,187.937L747.848,187.912L747.383,187.884L746.917,187.853L746.45,187.819L745.981,187.781L745.512,187.741L745.041,187.697L744.569,187.65L744.095,187.601L743.621,187.548L743.145,187.492L742.667,187.433L742.188,187.37L741.708,187.305L741.227,187.237L740.744,187.165L740.259,187.091L739.773,187.013L739.286,186.933L738.797,186.849L738.306,186.762L737.814,186.672L737.32,186.579L736.825,186.483L736.328,186.384L735.83,186.282L735.329,186.177L734.828,186.069L734.324,185.958L733.818,185.843L733.311,185.726L732.802,185.605L732.291,185.482L731.779,185.355L731.264,185.226L730.747,185.093L730.229,184.957L729.708,184.819L729.186,184.677L728.662,184.532L728.135,184.384L727.607,184.233L727.076,184.079L726.543,183.922L726.008,183.762L725.471,183.599L724.932,183.432L724.39,183.263L723.846,183.091L723.3,182.915L722.752,182.737L722.201,182.555L721.648,182.371L721.092,182.183L720.534,181.992L719.974,181.799L719.411,181.602L718.845,181.402L718.277,181.199L717.707,180.993L717.133,180.784L716.558,180.572L715.979,180.356L715.398,180.138L714.814,179.917L714.227,179.692L713.638,179.464L713.046,179.234L712.451,179L711.853,178.763L711.252,178.523L710.648,178.28L710.042,178.033L709.432,177.784L708.819,177.532L708.204,177.276L707.585,177.017L706.963,176.756L706.338,176.491L705.71,176.222L705.079,175.951L704.445,175.677L703.807,175.399L703.166,175.119L702.522,174.835L701.875,174.548L701.224,174.258L700.57,173.964L699.912,173.668L699.251,173.368L698.587,173.065L697.919,172.759L697.247,172.45L696.572,172.138L695.894,171.822L695.212,171.503L694.526,171.182L693.832,170.854L693.568,170.728L693.3,170.599L693.033,170.468L692.767,170.336L692.503,170.203L692.239,170.068L691.976,169.932L691.715,169.795L691.454,169.656L691.195,169.516L690.936,169.374L690.679,169.232L690.423,169.088L690.167,168.942L689.913,168.796L689.66,168.648L689.408,168.499L689.157,168.348L688.907,168.196L688.658,168.043L688.41,167.889L688.163,167.733L687.917,167.576L687.672,167.418L687.429,167.259L687.186,167.098L686.944,166.936L686.704,166.773L686.464,166.608L686.226,166.442L685.989,166.275L685.752,166.107L685.517,165.938L685.283,165.767L685.049,165.595L684.817,165.422L684.586,165.247L684.356,165.072L684.127,164.895L683.899,164.716L683.672,164.537L683.446,164.357L683.221,164.175L682.997,163.992L682.774,163.808L682.553,163.623L682.332,163.436L682.112,163.249L681.893,163.06L681.676,162.87L681.459,162.679L681.243,162.486L681.029,162.293L680.815,162.098L680.603,161.903L680.391,161.706L680.18,161.508L679.971,161.309L679.762,161.108L679.555,160.907L679.348,160.704L679.143,160.501L678.938,160.296L678.735,160.09L678.532,159.883L678.33,159.675L678.13,159.466L677.93,159.256L677.731,159.044L677.534,158.832L677.337,158.618L677.141,158.404L676.947,158.188L676.753,157.971L676.56,157.754L676.368,157.535L676.177,157.315L675.987,157.094L675.798,156.872L675.61,156.649L675.422,156.425L675.236,156.2L675.051,155.974L674.866,155.747L674.683,155.519L674.5,155.29L674.319,155.059L674.138,154.828L673.958,154.596L673.779,154.363L673.601,154.128L673.424,153.893L673.247,153.657L673.072,153.42L672.898,153.182L672.724,152.942L672.551,152.702L672.379,152.461L672.208,152.219L672.038,151.976L671.869,151.732L671.7,151.487L671.532,151.241L671.365,150.994L671.199,150.746L671.034,150.497L670.87,150.248L670.706,149.997L670.544,149.745L670.382,149.492L670.221,149.239L670.06,148.984L669.901,148.729L669.742,148.473L669.584,148.215L669.427,147.957L669.271,147.698L669.115,147.438L668.96,147.177L668.806,146.915L668.653,146.652L668.5,146.388L668.348,146.123L668.197,145.858L668.047,145.591L667.897,145.324L667.748,145.056L667.6,144.786L667.452,144.516L667.306,144.245L667.16,143.973L667.014,143.7L666.87,143.427L666.726,143.152L666.583,142.876L666.44,142.6L666.298,142.323L666.157,142.045L666.016,141.766L665.877,141.486L665.737,141.205L665.599,140.923L665.461,140.641L665.324,140.357L665.187,140.073L665.051,139.788L664.916,139.502L664.781,139.215L664.647,138.927L664.513,138.638L664.38,138.348L664.248,138.058L664.116,137.767L663.985,137.475L663.855,137.182L663.725,136.888L663.596,136.593L663.467,136.297L663.339,136.001L663.211,135.704L663.084,135.406L662.958,135.107L662.832,134.807L662.707,134.506L662.582,134.204L662.456,133.899L662.211,133.295L661.966,132.684L661.724,132.07L661.483,131.452L661.245,130.831L661.008,130.207L660.773,129.58L660.541,128.949L660.31,128.315L660.081,127.677L659.854,127.036L659.628,126.392L659.405,125.744L659.183,125.094L658.962,124.439L658.744,123.782L658.527,123.122L658.311,122.458L658.098,121.79L657.885,121.12L657.674,120.446L657.465,119.769L657.257,119.089L657.05,118.406L656.845,117.719L656.641,117.03L656.438,116.336L656.237,115.64L656.037,114.941L655.838,114.238L655.64,113.532L655.443,112.823L655.247,112.111L655.053,111.396L654.859,110.677L654.667,109.956L654.475,109.231L654.285,108.503L654.095,107.772L653.907,107.038L653.719,106.3L653.532,105.56L653.345,104.816L653.16,104.07L652.974,103.317L652.817,102.669L652.663,102.024L652.513,101.386L652.368,100.753L652.227,100.127L652.09,99.506L651.958,98.89L651.83,98.281L651.706,97.677L651.586,97.079L651.471,96.486L651.359,95.899L651.252,95.317L651.149,94.741L651.05,94.169L650.955,93.603L650.864,93.042L650.777,92.486L650.695,91.935L650.616,91.389L650.542,90.852L650.506,90.579L650.471,90.312L650.437,90.045L650.405,89.78L650.373,89.516L650.342,89.253L650.312,88.991L650.284,88.73L650.256,88.471L650.229,88.213L650.203,87.955L650.178,87.699L650.154,87.444L650.132,87.19L650.11,86.937L650.089,86.685L650.069,86.434L650.05,86.185L650.032,85.936L650.015,85.689L649.999,85.442L649.984,85.196L649.97,84.952L649.957,84.709L649.945,84.466L649.934,84.225L649.924,83.984L649.915,83.745L649.907,83.506L649.899,83.269L649.893,83.032L649.888,82.797L649.883,82.562L649.88,82.328L649.878,82.096L649.876,81.864L649.876,81.633L649.876,81.403L649.878,81.174L649.88,80.946L649.884,80.719L649.888,80.493L649.893,80.267L649.9,80.043L649.907,79.82L649.915,79.597L649.924,79.375L649.934,79.154L649.945,78.934L649.957,78.715L649.97,78.496L649.984,78.279L649.999,78.062L650.015,77.847L650.031,77.631L650.049,77.417L650.068,77.204L650.087,76.991L650.108,76.78L650.129,76.569L650.152,76.359L650.175,76.149L650.199,75.941L650.224,75.733L650.25,75.526L650.277,75.32L650.305,75.115L650.334,74.91L650.364,74.707L650.395,74.504L650.427,74.302L650.459,74.1L650.493,73.9L650.527,73.7L650.563,73.501L650.599,73.302L650.636,73.105L650.674,72.908L650.713,72.712L650.753,72.516L650.794,72.322L650.836,72.128L650.878,71.935L650.922,71.743L650.966,71.551L651.012,71.361L651.058,71.171L651.105,70.981L651.153,70.793L651.201,70.605L651.251,70.417L651.301,70.231L651.353,70.046L651.405,69.861L651.458,69.676L651.512,69.493L651.567,69.31L651.622,69.128L651.679,68.947L651.736,68.767L651.794,68.587L651.853,68.407L651.912,68.229L651.973,68.051L652.034,67.874L652.096,67.698L652.159,67.522L652.223,67.348L652.287,67.173L652.352,67L652.418,66.827L652.485,66.655L652.552,66.484L652.621,66.313L652.689,66.143L652.762,65.967L652.9,65.638L653.045,65.304L653.192,64.973L653.341,64.645L653.494,64.319L653.649,63.996L653.807,63.676L653.967,63.358L654.129,63.043L654.294,62.731L654.461,62.421L654.631,62.113L654.802,61.808L654.976,61.505L655.152,61.205L655.33,60.906L655.509,60.61L655.691,60.317L655.875,60.025L656.06,59.736L656.247,59.448L656.436,59.163L656.626,58.88L656.818,58.598L657.011,58.318L657.206,58.04L657.402,57.764L657.6,57.489L657.799,57.216L657.999,56.945L658.201,56.675L658.404,56.406L658.608,56.139L658.813,55.873L659.019,55.608L659.226,55.344L659.434,55.081L659.643,54.82L659.854,54.559L660.065,54.299L660.277,54.04L660.49,53.781L660.703,53.523L660.917,53.266L661.135,53.007L661.565,52.497L661.998,51.989L662.892,50.946L663.764,49.929L664.619,48.935L665.455,47.964L666.274,47.015L667.076,46.088L667.86,45.183L668.626,44.3L669.376,43.439L670.108,42.599L670.824,41.78L671.522,40.982L672.205,40.205L672.87,39.448L673.52,38.711L674.153,37.994L674.77,37.297L675.371,36.62L675.956,35.962L676.526,35.324L677.08,34.704L677.618,34.103L678.142,33.52L678.65,32.956L679.143,32.409L679.621,31.881L680.085,31.37L680.534,30.877L680.968,30.4L681.389,29.941L681.795,29.498L682.187,29.072L682.565,28.662L682.931,28.267L683.617,27.528L684.251,26.85L684.833,26.231L685.364,25.67L685.844,25.166L686.275,24.717L686.658,24.32L686.995,23.974L687.285,23.678L687.531,23.429L687.616,23.344L687.628,23.325L687.634,23.319L687.726,23.176L687.963,22.817L688.201,22.46L688.442,22.106L688.685,21.755L688.931,21.407L689.178,21.061L689.427,20.718L689.678,20.378L689.932,20.041L690.187,19.706L690.445,19.374L690.704,19.045L690.966,18.719L691.229,18.395L691.494,18.074L691.761,17.756L692.03,17.441L692.301,17.128L692.573,16.818L692.847,16.511L693.123,16.206L693.401,15.904L693.68,15.605L693.961,15.308L694.244,15.014L694.528,14.723L694.814,14.435L695.101,14.149L695.39,13.865L695.681,13.584L695.973,13.306L696.266,13.031L696.561,12.758L696.858,12.488L697.155,12.22L697.454,11.955L697.755,11.692L698.057,11.432L698.36,11.175L698.664,10.92L698.97,10.667L699.277,10.417L699.585,10.17L699.894,9.925L700.204,9.683L700.516,9.443L700.829,9.205L701.142,8.97L701.457,8.737L701.773,8.507L702.09,8.279L702.408,8.054L702.726,7.831L703.046,7.611L703.367,7.392L703.689,7.176L704.011,6.963L704.335,6.752L704.659,6.543L704.984,6.336L705.31,6.132L705.636,5.93L705.964,5.731L706.292,5.533L706.621,5.338L706.951,5.145L707.281,4.955L707.612,4.766L707.943,4.58L708.275,4.396L708.608,4.214L708.941,4.034L709.275,3.857L709.61,3.682L709.944,3.508L710.28,3.337L710.616,3.168L710.952,3.001L711.289,2.837L711.626,2.674L711.963,2.513L712.301,2.354L712.64,2.198L712.978,2.043L713.317,1.891L713.656,1.74L713.996,1.592L714.336,1.445L714.676,1.3L715.016,1.158L715.356,1.017L715.697,0.878L716.037,0.741L716.378,0.606L716.719,0.473L717.06,0.342L717.402,0.212L717.743,0.085L718.084,-0.041L718.426,-0.165L718.767,-0.287L719.108,-0.407L719.45,-0.526L719.791,-0.642L720.132,-0.757L720.473,-0.87L720.815,-0.982L721.156,-1.091L721.496,-1.199L721.837,-1.306L722.178,-1.41L722.518,-1.513L722.858,-1.614L723.198,-1.714L723.538,-1.811L723.877,-1.908L724.216,-2.002L724.555,-2.095L724.894,-2.187L725.232,-2.276L725.57,-2.365L725.907,-2.451L726.245,-2.536L726.582,-2.62L726.918,-2.702L727.254,-2.782L727.59,-2.861L727.925,-2.939L728.259,-3.014L728.593,-3.089L728.927,-3.162L729.26,-3.233L729.592,-3.304L729.924,-3.372L730.256,-3.439L730.586,-3.505L730.917,-3.57L731.246,-3.633L731.575,-3.694L731.903,-3.754L732.231,-3.813L732.558,-3.871L732.884,-3.927L733.209,-3.982L733.534,-4.035L733.858,-4.088L734.181,-4.138L734.503,-4.188L734.824,-4.236L735.145,-4.284L735.465,-4.329L735.784,-4.374L736.102,-4.417L736.419,-4.459L736.735,-4.5L737.05,-4.54L737.365,-4.579L737.678,-4.616L737.991,-4.652L738.302,-4.687L738.613,-4.721L738.922,-4.754L739.23,-4.785L739.537,-4.816L739.843,-4.845L740.149,-4.873L740.453,-4.9L740.755,-4.927L741.057,-4.952L741.358,-4.975L741.657,-4.998L741.955,-5.02L742.252,-5.041L742.548,-5.061L742.842,-5.08L743.136,-5.097L743.428,-5.114L743.718,-5.13L744.008,-5.145L744.296,-5.159L744.582,-5.172L744.868,-5.184L745.152,-5.195L745.434,-5.205L745.716,-5.214L745.995,-5.222L746.274,-5.23L746.551,-5.236L746.826,-5.242L747.104,-5.247L747.643,-5.253L748.181,-5.257L748.712,-5.257L749.237,-5.254L749.755,-5.248L750.267,-5.239L750.773,-5.227L751.271,-5.212L751.763,-5.194L752.248,-5.174L752.725,-5.15L753.196,-5.124L753.659,-5.095L754.115,-5.064L754.563,-5.031L755.004,-4.994L755.437,-4.956L755.863,-4.915L756.281,-4.872L756.691,-4.827L757.094,-4.779L757.489,-4.73L757.876,-4.678L758.255,-4.624L758.627,-4.568L758.99,-4.51L759.347,-4.449L759.696,-4.387L760.037,-4.322L760.372,-4.255L760.691,-4.187L760.861,-4.15L761.016,-4.115L761.531,-3.995L762.04,-3.875L762.545,-3.753L763.049,-3.631L763.549,-3.507L764.047,-3.383L764.543,-3.257L765.036,-3.13L765.527,-3.002L766.015,-2.873L766.501,-2.742L766.984,-2.611L767.465,-2.479L767.943,-2.345L768.419,-2.211L768.893,-2.075L769.364,-1.939L769.832,-1.801L770.298,-1.662L770.762,-1.523L771.224,-1.382L771.683,-1.24L772.139,-1.098L772.594,-0.954L773.045,-0.809L773.495,-0.664L773.942,-0.517L774.387,-0.37L774.829,-0.221L775.269,-0.072L775.707,0.078L776.143,0.229L776.576,0.381L777.007,0.534L777.435,0.688L777.862,0.843L778.286,0.998L778.707,1.154L779.127,1.312L779.544,1.47L779.959,1.629L780.372,1.788L780.782,1.949L781.191,2.11L781.597,2.272L782.001,2.435L782.402,2.598L782.802,2.763L783.199,2.928L783.594,3.094L783.987,3.26L784.377,3.428L784.766,3.595L785.152,3.764L785.537,3.934L785.919,4.104L786.299,4.274L786.676,4.446L787.052,4.618L787.426,4.79L787.797,4.964L788.167,5.138L788.534,5.312L788.899,5.487L789.262,5.663L789.623,5.839L789.982,6.016L790.339,6.194L790.694,6.372L791.047,6.55L791.398,6.729L791.747,6.909L792.094,7.089L792.438,7.27L792.781,7.451L793.122,7.632L793.461,7.815L793.798,7.997L794.132,8.18L794.465,8.364L794.796,8.548L795.125,8.732L795.452,8.917L795.777,9.102L796.1,9.287L796.422,9.473L796.741,9.659L797.058,9.846L797.374,10.033L797.687,10.22L797.999,10.408L798.309,10.596L798.617,10.784L798.923,10.973L799.227,11.162L799.529,11.351L799.83,11.541L800.129,11.73L800.425,11.92L800.72,12.111L801.014,12.301L801.305,12.492L801.595,12.683L801.883,12.874L802.169,13.065L802.453,13.256L802.735,13.448L803.016,13.64L803.295,13.832L803.572,14.024L803.848,14.216L804.121,14.408L804.393,14.6L804.664,14.793L804.932,14.986L805.199,15.178L805.464,15.371L805.728,15.564L805.99,15.756L806.25,15.949L806.508,16.142L806.765,16.335L807.02,16.528L807.274,16.72L807.526,16.913L807.776,17.106L808.025,17.299L808.272,17.491L808.517,17.684L808.761,17.876L809.003,18.069L809.244,18.261L809.483,18.453L809.721,18.645L809.956,18.837L810.191,19.029L810.424,19.221L810.655,19.412L810.885,19.603L811.116,19.797L811.565,20.176L812.011,20.557L812.451,20.936L812.885,21.315L813.314,21.692L813.736,22.069L814.153,22.443L814.564,22.817L814.97,23.189L815.37,23.559L815.765,23.928L816.154,24.294L816.539,24.659L816.917,25.022L817.291,25.383L817.659,25.742L818.023,26.098L818.381,26.452L818.734,26.804L819.083,27.153L819.426,27.499L819.765,27.843L820.099,28.184L820.428,28.522L820.753,28.856L821.073,29.188L821.388,29.517L821.701,29.844L822.308,30.481L822.899,31.107L823.474,31.717L824.572,32.888L825.098,33.447L825.608,33.988L826.104,34.511L826.343,34.762L826.581,35.009L826.814,35.251L827.044,35.488L827.269,35.719L827.491,35.944L827.709,36.164L827.923,36.377L828.133,36.584L828.339,36.786L828.541,36.981L828.739,37.169L828.932,37.351L829.137,37.541L829.473,37.851L829.82,38.175L830.163,38.501L830.502,38.827L830.837,39.153L831.169,39.48L831.496,39.808L831.82,40.136L832.14,40.465L832.456,40.795L832.768,41.125L833.076,41.455L833.381,41.786L833.682,42.118L833.979,42.45L834.272,42.782L834.562,43.116L834.848,43.449L835.13,43.783L835.408,44.118L835.683,44.453L835.955,44.788L836.222,45.124L836.486,45.46L836.746,45.797L837.003,46.134L837.256,46.471L837.506,46.809L837.752,47.147L837.994,47.486L838.233,47.824L838.469,48.164L838.701,48.503L838.929,48.843L839.155,49.183L839.376,49.523L839.594,49.863L839.809,50.204L840.02,50.545L840.228,50.886L840.433,51.228L840.634,51.569L840.832,51.911L841.027,52.253L841.218,52.595L841.406,52.937L841.59,53.279L841.772,53.621L841.95,53.964L842.125,54.306L842.297,54.649L842.465,54.991L842.631,55.334L842.793,55.676L842.952,56.019L843.108,56.361L843.261,56.703L843.411,57.046L843.557,57.388L843.701,57.73L843.841,58.072L843.979,58.414L844.114,58.756L844.245,59.097L844.374,59.438L844.5,59.78L844.623,60.121L844.743,60.461L844.86,60.802L844.974,61.142L845.085,61.482L845.194,61.821L845.3,62.161L845.403,62.5L845.503,62.838L845.6,63.177L845.695,63.515L845.787,63.852L845.877,64.189L845.964,64.526L846.048,64.862L846.13,65.198L846.209,65.533L846.285,65.868L846.359,66.202L846.431,66.536L846.5,66.869L846.566,67.202L846.63,67.534L846.692,67.866L846.752,68.197L846.809,68.528L846.863,68.857L846.916,69.187L846.966,69.515L847.013,69.843L847.059,70.171L847.102,70.497L847.143,70.823L847.182,71.148L847.219,71.473L847.254,71.797L847.286,72.12L847.317,72.442L847.345,72.763L847.372,73.084L847.396,73.404L847.419,73.723L847.439,74.041L847.458,74.359L847.475,74.676L847.49,74.992L847.503,75.306L847.514,75.621L847.523,75.934L847.531,76.246L847.537,76.558L847.541,76.868L847.543,77.178L847.544,77.486L847.543,77.794L847.541,78.101L847.537,78.407L847.531,78.712L847.524,79.016L847.515,79.318L847.505,79.62L847.493,79.921L847.48,80.221L847.466,80.52L847.45,80.818L847.432,81.114L847.414,81.41L847.394,81.705L847.372,81.998L847.35,82.291L847.326,82.582L847.301,82.873L847.275,83.162L847.247,83.45L847.218,83.737L847.189,84.023L847.158,84.307L847.126,84.591L847.093,84.873L847.059,85.154L847.024,85.434L846.988,85.713L846.951,85.991L846.913,86.267L846.874,86.542L846.834,86.816L846.794,87.089L846.752,87.36L846.71,87.631L846.667,87.9L846.623,88.167L846.578,88.434L846.533,88.699L846.487,88.963L846.44,89.226L846.393,89.487L846.345,89.747L846.296,90.01L846.198,90.519L846.097,91.026L845.994,91.529L845.889,92.026L845.783,92.517L845.675,93.002L845.566,93.482L845.456,93.956L845.345,94.424L845.234,94.886L845.122,95.341L845.01,95.791L844.897,96.234L844.785,96.671L844.673,97.101L844.561,97.525L844.451,97.942L844.34,98.355L844.124,99.151L843.913,99.922L843.513,101.374L843.327,102.054L843.239,102.379L843.154,102.696L843.072,103.005L842.993,103.304L842.919,103.594L842.848,103.874L842.781,104.144L842.718,104.404L842.66,104.652L842.606,104.889L842.556,105.114L842.512,105.327L842.471,105.534L842.454,105.621L842.438,105.712L842.422,105.8L842.408,105.883L842.395,105.963L842.383,106.039L842.373,106.111L842.363,106.178L842.355,106.241L842.346,106.318L842.297,106.74L842.244,107.181L842.189,107.622L842.133,108.064L842.075,108.505L842.016,108.947L841.955,109.39L841.893,109.832L841.829,110.275L841.763,110.718L841.696,111.161L841.627,111.605L841.556,112.048L841.484,112.492L841.41,112.935L841.334,113.379L841.256,113.823L841.177,114.267L841.096,114.71L841.014,115.154L840.929,115.598L840.843,116.041L840.755,116.484L840.665,116.928L840.573,117.371L840.48,117.814L840.384,118.256L840.287,118.699L840.188,119.141L840.087,119.583L839.984,120.024L839.879,120.465L839.772,120.906L839.663,121.346L839.552,121.786L839.439,122.226L839.325,122.665L839.208,123.104L839.089,123.542L838.968,123.979L838.845,124.416L838.72,124.853L838.593,125.288L838.463,125.724L838.332,126.158L838.198,126.592L838.062,127.025L837.924,127.457L837.784,127.889L837.642,128.319L837.497,128.749L837.351,129.178L837.202,129.607L837.05,130.034L836.896,130.46L836.74,130.886L836.582,131.31L836.421,131.734L836.258,132.156L836.093,132.578L835.925,132.998L835.755,133.417L835.582,133.835L835.407,134.252L835.23,134.668L835.049,135.082L834.867,135.496L834.682,135.908L834.494,136.318L834.304,136.728L834.111,137.136L833.915,137.543L833.717,137.948L833.517,138.352L833.313,138.754L833.107,139.155L832.899,139.554L832.687,139.952L832.473,140.348L832.256,140.743L832.036,141.136L831.814,141.527L831.588,141.917L831.36,142.305L831.129,142.691L830.895,143.075L830.661,143.453L830.539,143.648L830.419,143.838L830.298,144.027L830.176,144.217L830.054,144.405L829.931,144.593L829.807,144.781L829.682,144.968L829.557,145.155L829.431,145.341L829.304,145.527L829.176,145.712L829.048,145.896L828.918,146.08L828.789,146.264L828.658,146.447L828.526,146.629L828.394,146.811L828.261,146.993L828.127,147.174L827.993,147.354L827.858,147.534L827.722,147.713L827.585,147.891L827.447,148.069L827.309,148.247L827.169,148.424L827.029,148.6L826.889,148.776L826.747,148.951L826.605,149.125L826.461,149.299L826.317,149.473L826.173,149.645L826.027,149.817L825.881,149.989L825.733,150.16L825.585,150.33L825.437,150.499L825.287,150.668L825.136,150.837L824.985,151.004L824.833,151.171L824.68,151.337L824.526,151.503L824.372,151.668L824.217,151.832L824.06,151.996L823.903,152.158L823.745,152.321L823.587,152.482L823.427,152.643L823.267,152.803L823.106,152.962L822.943,153.121L822.781,153.279L822.617,153.436L822.452,153.592L822.287,153.748L822.121,153.903L821.953,154.057L821.786,154.21L821.617,154.363L821.447,154.515L821.277,154.666L821.105,154.816L820.933,154.966L820.76,155.115L820.586,155.263L820.411,155.41L820.236,155.556L820.059,155.701L819.882,155.846L819.704,155.99L819.525,156.133L819.345,156.275L819.164,156.417L818.982,156.557L818.8,156.697L818.616,156.835L818.432,156.973L818.252,157.107L817.214,157.87L816.19,158.622L815.175,159.365L814.169,160.1L813.172,160.826L812.184,161.544L811.203,162.253L810.231,162.953L809.267,163.645L808.31,164.328L807.361,165.002L806.42,165.667L805.95,165.998L805.483,166.325L805.018,166.65L804.555,166.973L804.093,167.294L803.633,167.613L803.174,167.929L802.717,168.244L802.261,168.556L801.807,168.865L801.354,169.173L800.903,169.478L800.453,169.782L800.005,170.083L799.558,170.381L799.112,170.678L798.667,170.972L798.224,171.264L797.782,171.554L797.341,171.842L796.901,172.127L796.462,172.41L796.025,172.691L795.588,172.969L795.153,173.245L794.718,173.519L794.285,173.791L793.853,174.06L793.421,174.328L792.99,174.592L792.561,174.855L792.132,175.115L791.704,175.373L791.276,175.629L790.85,175.882L790.424,176.133L789.999,176.381L789.575,176.627L789.151,176.871L788.728,177.113L788.305,177.352L787.883,177.589L787.462,177.823L787.041,178.055L786.62,178.285L786.2,178.512L785.78,178.737L785.361,178.96L784.942,179.18L784.524,179.397L784.105,179.612L783.687,179.825L783.27,180.035L782.852,180.243L782.435,180.448L782.018,180.651L781.601,180.851L781.184,181.049L780.767,181.244L780.351,181.437L779.934,181.627L779.517,181.815L779.101,182L778.684,182.183L778.267,182.363L777.85,182.54L777.434,182.715L777.017,182.887L776.599,183.057L776.182,183.224L775.765,183.388L775.347,183.549L774.929,183.708L774.511,183.865L774.092,184.018L773.673,184.169L773.254,184.317L772.835,184.463L772.415,184.605L771.994,184.745L771.574,184.883L771.153,185.017L770.731,185.149L770.309,185.277L769.887,185.403L769.464,185.527L769.04,185.647L768.617,185.764L768.192,185.879L767.767,185.991L767.341,186.1L766.915,186.206L766.488,186.309L766.061,186.409L765.633,186.506L765.204,186.601L764.775,186.692L764.345,186.78L763.914,186.866L763.483,186.948L763.05,187.028L762.618,187.104L762.184,187.178L761.75,187.248ZM760.663,175.815L761.017,175.753L761.37,175.688L761.723,175.62L762.076,175.55L762.429,175.478L762.781,175.403L763.133,175.326L763.485,175.246L763.836,175.163L764.188,175.078L764.539,174.991L764.89,174.901L765.242,174.809L765.593,174.714L765.945,174.616L766.296,174.517L766.648,174.414L766.999,174.309L767.351,174.202L767.703,174.092L768.056,173.979L768.408,173.864L768.761,173.747L769.115,173.627L769.469,173.504L769.823,173.379L770.177,173.251L770.532,173.121L770.888,172.988L771.244,172.853L771.6,172.715L771.957,172.574L772.315,172.431L772.673,172.285L773.032,172.137L773.392,171.986L773.753,171.833L774.114,171.677L774.476,171.518L774.838,171.357L775.202,171.194L775.566,171.027L775.931,170.858L776.298,170.687L776.665,170.513L777.033,170.336L777.402,170.156L777.771,169.974L778.142,169.79L778.514,169.603L778.887,169.413L779.261,169.22L779.637,169.025L780.013,168.828L780.39,168.627L780.769,168.425L781.149,168.219L781.53,168.011L781.912,167.8L782.296,167.587L782.68,167.371L783.066,167.153L783.454,166.932L783.843,166.708L784.233,166.481L784.624,166.253L785.017,166.021L785.412,165.787L785.807,165.55L786.205,165.311L786.603,165.069L787.004,164.824L787.405,164.577L787.809,164.328L788.214,164.075L788.62,163.82L789.028,163.563L789.438,163.303L789.85,163.041L790.263,162.775L790.678,162.508L791.094,162.238L791.512,161.965L791.932,161.689L792.354,161.412L792.778,161.131L793.203,160.848L793.631,160.563L794.06,160.275L794.491,159.984L794.924,159.691L795.359,159.396L795.796,159.097L796.235,158.797L796.676,158.494L797.119,158.188L797.564,157.88L798.011,157.57L798.46,157.256L798.911,156.941L799.364,156.623L799.818,156.304L800.738,155.654L801.664,154.996L802.599,154.328L803.544,153.65L804.498,152.963L805.462,152.266L806.435,151.56L807.418,150.844L808.412,150.118L809.415,149.383L810.43,148.639L811.449,147.888L811.591,147.784L811.727,147.682L811.862,147.58L811.997,147.476L812.131,147.372L812.265,147.268L812.398,147.163L812.531,147.057L812.663,146.95L812.794,146.843L812.925,146.735L813.056,146.626L813.186,146.517L813.315,146.407L813.444,146.296L813.572,146.184L813.7,146.072L813.827,145.96L813.954,145.846L814.08,145.732L814.206,145.617L814.331,145.502L814.456,145.385L814.58,145.268L814.704,145.151L814.827,145.033L814.95,144.914L815.072,144.794L815.194,144.674L815.315,144.553L815.435,144.432L815.555,144.309L815.675,144.186L815.794,144.063L815.913,143.939L816.031,143.814L816.149,143.688L816.266,143.562L816.382,143.435L816.499,143.308L816.614,143.18L816.729,143.051L816.844,142.922L816.958,142.791L817.072,142.661L817.185,142.529L817.298,142.397L817.41,142.265L817.522,142.131L817.633,141.998L817.744,141.863L817.854,141.728L817.964,141.592L818.073,141.456L818.182,141.319L818.29,141.181L818.398,141.043L818.506,140.904L818.613,140.764L818.719,140.624L818.825,140.483L818.931,140.342L819.036,140.2L819.14,140.057L819.244,139.914L819.348,139.77L819.451,139.626L819.554,139.481L819.656,139.335L819.757,139.189L819.859,139.042L819.959,138.895L820.06,138.747L820.159,138.598L820.259,138.449L820.358,138.299L820.456,138.149L820.554,137.998L820.651,137.847L820.748,137.695L820.845,137.542L820.938,137.394L821.132,137.081L821.32,136.771L821.507,136.458L821.692,136.144L821.875,135.827L822.057,135.508L822.236,135.187L822.414,134.864L822.59,134.539L822.764,134.212L822.936,133.883L823.106,133.551L823.274,133.218L823.441,132.883L823.606,132.546L823.769,132.207L823.93,131.866L824.089,131.524L824.246,131.179L824.402,130.833L824.556,130.485L824.708,130.135L824.858,129.783L825.006,129.43L825.153,129.075L825.298,128.718L825.441,128.36L825.582,128.001L825.721,127.639L825.859,127.276L825.995,126.912L826.129,126.546L826.261,126.179L826.392,125.81L826.521,125.44L826.648,125.069L826.773,124.696L826.897,124.322L827.019,123.947L827.139,123.57L827.258,123.192L827.374,122.813L827.489,122.433L827.603,122.051L827.714,121.669L827.824,121.286L827.932,120.901L828.039,120.515L828.144,120.129L828.247,119.741L828.349,119.353L828.449,118.963L828.547,118.573L828.644,118.182L828.739,117.79L828.832,117.397L828.924,117.004L829.014,116.609L829.103,116.214L829.19,115.819L829.275,115.422L829.359,115.026L829.441,114.628L829.522,114.23L829.601,113.831L829.679,113.432L829.755,113.033L829.829,112.633L829.903,112.232L829.974,111.832L830.044,111.43L830.113,111.029L830.18,110.627L830.245,110.225L830.309,109.823L830.372,109.42L830.433,109.018L830.493,108.615L830.551,108.212L830.608,107.809L830.663,107.406L830.717,107.002L830.77,106.599L830.821,106.196L830.871,105.793L830.92,105.39L830.969,104.969L830.987,104.822L831.008,104.657L831.031,104.493L831.055,104.33L831.08,104.168L831.106,104.006L831.134,103.844L831.162,103.683L831.192,103.522L831.224,103.353L831.286,103.04L831.353,102.718L831.424,102.395L831.497,102.071L831.574,101.745L831.653,101.417L831.735,101.087L831.819,100.755L831.906,100.419L831.995,100.081L832.085,99.74L832.178,99.395L832.273,99.046L832.465,98.343L832.865,96.888L833.07,96.139L833.278,95.372L833.382,94.987L833.486,94.596L833.589,94.202L833.693,93.803L833.796,93.402L833.899,92.996L834.001,92.587L834.102,92.175L834.203,91.76L834.302,91.34L834.4,90.918L834.497,90.493L834.592,90.064L834.685,89.632L834.777,89.197L834.867,88.758L834.955,88.317L835.041,87.869L835.082,87.65L835.123,87.426L835.164,87.202L835.204,86.976L835.243,86.751L835.282,86.524L835.32,86.297L835.357,86.069L835.394,85.84L835.43,85.611L835.465,85.381L835.499,85.15L835.533,84.919L835.566,84.688L835.597,84.455L835.629,84.222L835.659,83.989L835.688,83.754L835.716,83.52L835.744,83.284L835.77,83.049L835.796,82.812L835.821,82.575L835.844,82.338L835.867,82.1L835.889,81.861L835.91,81.622L835.929,81.382L835.948,81.142L835.965,80.902L835.982,80.661L835.997,80.419L836.011,80.177L836.024,79.934L836.036,79.691L836.046,79.448L836.056,79.204L836.064,78.96L836.071,78.715L836.077,78.47L836.082,78.224L836.085,77.978L836.087,77.732L836.088,77.485L836.087,77.238L836.085,76.991L836.082,76.743L836.077,76.494L836.071,76.246L836.063,75.997L836.054,75.747L836.044,75.498L836.032,75.248L836.019,74.997L836.004,74.746L835.988,74.495L835.97,74.244L835.951,73.992L835.93,73.74L835.908,73.488L835.884,73.235L835.859,72.982L835.831,72.729L835.803,72.475L835.772,72.222L835.74,71.968L835.706,71.713L835.671,71.459L835.634,71.204L835.595,70.948L835.554,70.693L835.512,70.437L835.468,70.181L835.422,69.925L835.374,69.669L835.325,69.412L835.273,69.155L835.22,68.898L835.165,68.64L835.108,68.382L835.049,68.124L834.988,67.866L834.925,67.608L834.86,67.349L834.793,67.09L834.725,66.831L834.654,66.571L834.581,66.312L834.506,66.052L834.429,65.792L834.35,65.531L834.269,65.271L834.185,65.01L834.1,64.749L834.012,64.488L833.922,64.226L833.83,63.964L833.736,63.703L833.639,63.44L833.54,63.178L833.439,62.915L833.335,62.652L833.229,62.389L833.121,62.126L833.01,61.862L832.897,61.599L832.782,61.335L832.664,61.07L832.543,60.806L832.42,60.541L832.295,60.276L832.167,60.011L832.036,59.746L831.903,59.48L831.767,59.215L831.629,58.949L831.488,58.682L831.344,58.416L831.198,58.149L831.048,57.882L830.896,57.615L830.741,57.348L830.584,57.08L830.423,56.813L830.26,56.545L830.094,56.276L829.925,56.008L829.753,55.74L829.578,55.471L829.4,55.202L829.218,54.933L829.034,54.663L828.847,54.394L828.657,54.124L828.464,53.854L828.267,53.584L828.067,53.314L827.864,53.043L827.658,52.773L827.449,52.502L827.236,52.231L827.02,51.96L826.801,51.688L826.578,51.417L826.352,51.146L826.122,50.874L825.889,50.602L825.653,50.33L825.413,50.058L825.17,49.786L824.923,49.514L824.672,49.241L824.418,48.969L824.16,48.697L823.899,48.424L823.634,48.151L823.365,47.879L823.092,47.606L822.816,47.333L822.536,47.06L822.252,46.787L821.964,46.514L821.672,46.241L821.362,45.954L821.122,45.732L820.867,45.493L820.612,45.251L820.359,45.006L820.105,44.758L819.851,44.508L819.598,44.255L819.344,43.999L819.089,43.74L818.834,43.479L818.578,43.216L818.322,42.949L818.064,42.681L817.803,42.407L817.284,41.86L816.756,41.3L816.221,40.731L815.127,39.565L814.566,38.969L813.995,38.365L813.411,37.751L813.117,37.444L812.819,37.133L812.517,36.821L812.212,36.506L811.905,36.191L811.593,35.873L811.279,35.554L810.961,35.233L810.639,34.911L810.314,34.587L809.985,34.262L809.652,33.936L809.315,33.608L808.975,33.279L808.63,32.948L808.281,32.617L807.928,32.284L807.571,31.951L807.209,31.616L806.843,31.281L806.473,30.944L806.098,30.607L805.718,30.269L805.333,29.93L804.944,29.591L804.55,29.251L804.151,28.91L803.744,28.567L803.543,28.398L803.338,28.228L803.131,28.057L802.923,27.886L802.714,27.715L802.504,27.543L802.292,27.372L802.079,27.201L801.865,27.03L801.649,26.858L801.431,26.687L801.213,26.515L800.993,26.344L800.772,26.172L800.549,26.001L800.325,25.829L800.099,25.657L799.872,25.486L799.644,25.314L799.414,25.143L799.182,24.971L798.95,24.8L798.715,24.629L798.48,24.457L798.242,24.286L798.003,24.115L797.763,23.944L797.521,23.773L797.278,23.602L797.033,23.431L796.786,23.26L796.538,23.089L796.289,22.919L796.037,22.748L795.785,22.578L795.53,22.408L795.274,22.238L795.016,22.068L794.757,21.898L794.496,21.729L794.234,21.56L793.969,21.391L793.703,21.222L793.436,21.053L793.167,20.884L792.896,20.716L792.623,20.548L792.348,20.38L792.072,20.213L791.794,20.045L791.515,19.878L791.233,19.712L790.95,19.545L790.665,19.379L790.378,19.213L790.09,19.047L789.8,18.882L789.507,18.717L789.213,18.552L788.918,18.388L788.62,18.224L788.32,18.06L788.019,17.897L787.716,17.734L787.411,17.571L787.104,17.409L786.795,17.247L786.484,17.085L786.171,16.924L785.856,16.764L785.54,16.603L785.221,16.444L784.9,16.284L784.578,16.125L784.253,15.967L783.927,15.809L783.598,15.651L783.268,15.494L782.935,15.338L782.601,15.181L782.264,15.026L781.925,14.871L781.585,14.716L781.242,14.562L780.897,14.409L780.55,14.256L780.201,14.103L779.85,13.952L779.496,13.8L779.141,13.65L778.783,13.499L778.424,13.35L778.062,13.201L777.698,13.053L777.331,12.905L776.963,12.758L776.592,12.612L776.219,12.466L775.845,12.321L775.467,12.177L775.088,12.033L774.706,11.89L774.322,11.747L773.936,11.606L773.547,11.465L773.156,11.324L772.763,11.185L772.368,11.046L771.97,10.908L771.57,10.771L771.168,10.634L770.763,10.499L770.356,10.364L769.946,10.23L769.535,10.096L769.12,9.964L768.704,9.832L768.285,9.701L767.863,9.571L767.44,9.442L767.013,9.313L766.585,9.186L766.154,9.059L765.72,8.934L765.284,8.809L764.846,8.685L764.404,8.562L763.961,8.439L763.515,8.318L763.067,8.198L762.616,8.079L762.162,7.96L761.706,7.843L761.247,7.727L760.786,7.611L760.322,7.497L759.856,7.383L759.387,7.271L758.915,7.159L758.446,7.05L758.351,7.028L758.265,7.009L758.058,6.966L757.846,6.923L757.62,6.88L757.382,6.838L757.131,6.795L756.869,6.753L756.595,6.712L756.31,6.671L756.014,6.632L755.708,6.593L755.392,6.556L755.065,6.52L754.729,6.485L754.384,6.452L754.029,6.421L753.666,6.391L753.294,6.363L752.913,6.337L752.525,6.313L752.128,6.291L751.723,6.271L751.31,6.254L750.89,6.238L750.463,6.225L750.028,6.215L749.587,6.207L749.139,6.202L748.684,6.199L748.223,6.2L747.755,6.203L747.277,6.209L747.043,6.213L746.802,6.218L746.56,6.224L746.317,6.23L746.072,6.237L745.826,6.245L745.579,6.254L745.33,6.264L745.08,6.274L744.829,6.286L744.576,6.298L744.322,6.311L744.067,6.325L743.811,6.339L743.554,6.355L743.295,6.371L743.035,6.389L742.774,6.407L742.512,6.426L742.249,6.446L741.985,6.467L741.72,6.489L741.453,6.512L741.186,6.536L740.918,6.561L740.649,6.587L740.379,6.614L740.108,6.641L739.836,6.67L739.563,6.7L739.289,6.731L739.015,6.763L738.739,6.795L738.463,6.829L738.186,6.864L737.909,6.9L737.63,6.937L737.351,6.975L737.071,7.014L736.79,7.054L736.509,7.096L736.227,7.138L735.945,7.182L735.661,7.226L735.377,7.272L735.093,7.319L734.808,7.367L734.523,7.416L734.237,7.466L733.951,7.518L733.664,7.571L733.376,7.624L733.089,7.679L732.8,7.736L732.512,7.793L732.223,7.852L731.933,7.911L731.644,7.972L731.354,8.035L731.063,8.098L730.773,8.163L730.482,8.229L730.191,8.296L729.9,8.365L729.608,8.435L729.316,8.506L729.024,8.578L728.732,8.652L728.44,8.727L728.148,8.803L727.856,8.881L727.563,8.96L727.271,9.04L726.978,9.121L726.686,9.204L726.393,9.289L726.101,9.374L725.808,9.461L725.516,9.55L725.223,9.639L724.931,9.73L724.639,9.823L724.347,9.917L724.055,10.012L723.763,10.109L723.472,10.207L723.181,10.307L722.89,10.408L722.599,10.51L722.308,10.614L722.018,10.719L721.728,10.826L721.438,10.934L721.149,11.044L720.86,11.155L720.571,11.268L720.283,11.382L719.995,11.498L719.708,11.615L719.421,11.734L719.134,11.854L718.848,11.976L718.562,12.099L718.277,12.224L717.993,12.35L717.709,12.478L717.425,12.607L717.142,12.738L716.86,12.871L716.578,13.005L716.297,13.14L716.017,13.278L715.737,13.417L715.458,13.557L715.18,13.699L714.902,13.843L714.625,13.988L714.349,14.135L714.073,14.283L713.799,14.433L713.525,14.585L713.252,14.738L712.979,14.894L712.708,15.05L712.437,15.209L712.168,15.369L711.899,15.53L711.631,15.694L711.364,15.859L711.097,16.026L710.832,16.194L710.568,16.364L710.305,16.536L710.042,16.71L709.781,16.885L709.521,17.062L709.262,17.241L709.003,17.422L708.746,17.604L708.49,17.788L708.235,17.974L707.981,18.162L707.728,18.351L707.477,18.542L707.226,18.735L706.977,18.93L706.728,19.127L706.481,19.325L706.235,19.525L705.991,19.727L705.747,19.932L705.505,20.137L705.264,20.345L705.024,20.555L704.786,20.766L704.548,20.979L704.312,21.195L704.078,21.412L703.844,21.631L703.612,21.852L703.382,22.075L703.152,22.3L702.924,22.527L702.697,22.756L702.472,22.986L702.248,23.219L702.026,23.454L701.805,23.691L701.585,23.93L701.367,24.17L701.15,24.413L700.935,24.658L700.721,24.905L700.509,25.155L700.298,25.406L700.089,25.659L699.881,25.915L699.674,26.172L699.47,26.432L699.266,26.694L699.065,26.958L698.865,27.224L698.666,27.493L698.469,27.764L698.274,28.036L698.08,28.312L697.889,28.589L697.698,28.869L697.509,29.151L697.322,29.435L697.137,29.722L696.941,30.03L696.691,30.392L696.414,30.734L696.111,31.053L696.043,31.12L695.961,31.201L695.836,31.326L695.666,31.496L695.452,31.713L695.191,31.979L694.884,32.294L694.529,32.662L694.125,33.083L693.671,33.56L693.166,34.094L692.609,34.686L691.998,35.339L691.332,36.056L690.98,36.436L690.613,36.834L690.232,37.249L689.837,37.68L689.427,38.127L689.003,38.592L688.564,39.075L688.11,39.574L687.642,40.092L687.159,40.628L686.66,41.181L686.146,41.753L685.617,42.344L685.072,42.954L684.511,43.582L683.935,44.23L683.343,44.897L682.734,45.584L682.11,46.291L681.469,47.018L680.812,47.766L680.138,48.534L679.447,49.323L678.739,50.133L678.015,50.964L677.273,51.816L676.514,52.69L675.738,53.586L674.944,54.504L674.132,55.445L673.303,56.408L672.456,57.393L671.59,58.402L670.709,59.431L670.301,59.91L669.901,60.383L669.708,60.614L669.514,60.846L669.322,61.077L669.133,61.307L668.946,61.536L668.761,61.763L668.579,61.99L668.398,62.216L668.22,62.44L668.045,62.664L667.871,62.887L667.7,63.11L667.531,63.331L667.364,63.552L667.2,63.772L667.038,63.991L666.878,64.211L666.721,64.429L666.566,64.647L666.413,64.865L666.263,65.082L666.115,65.299L665.97,65.516L665.826,65.732L665.686,65.949L665.547,66.165L665.411,66.382L665.277,66.599L665.145,66.815L665.016,67.032L664.889,67.249L664.764,67.467L664.641,67.684L664.521,67.903L664.403,68.122L664.287,68.341L664.174,68.562L664.062,68.783L663.953,69.005L663.846,69.228L663.741,69.452L663.638,69.677L663.538,69.903L663.439,70.131L663.34,70.367L663.295,70.475L663.249,70.591L663.202,70.707L663.157,70.823L663.111,70.94L663.067,71.057L663.022,71.175L662.979,71.293L662.936,71.411L662.893,71.531L662.851,71.65L662.809,71.77L662.768,71.891L662.728,72.012L662.688,72.134L662.648,72.256L662.609,72.379L662.571,72.502L662.533,72.626L662.496,72.751L662.459,72.876L662.423,73.002L662.387,73.129L662.352,73.256L662.317,73.384L662.283,73.513L662.249,73.642L662.216,73.772L662.184,73.903L662.152,74.034L662.12,74.167L662.09,74.3L662.059,74.433L662.03,74.568L662.001,74.704L661.972,74.84L661.944,74.977L661.917,75.115L661.89,75.254L661.863,75.393L661.838,75.534L661.812,75.675L661.788,75.818L661.764,75.961L661.741,76.105L661.718,76.25L661.696,76.396L661.674,76.543L661.653,76.691L661.633,76.84L661.613,76.99L661.594,77.141L661.576,77.293L661.558,77.446L661.541,77.6L661.524,77.755L661.508,77.911L661.493,78.069L661.479,78.227L661.465,78.386L661.451,78.547L661.439,78.708L661.427,78.871L661.416,79.035L661.405,79.2L661.395,79.366L661.386,79.533L661.378,79.702L661.37,79.872L661.363,80.042L661.357,80.214L661.351,80.387L661.346,80.562L661.342,80.738L661.339,80.914L661.336,81.092L661.334,81.272L661.333,81.453L661.333,81.634L661.333,81.818L661.334,82.002L661.336,82.188L661.339,82.375L661.342,82.563L661.346,82.753L661.351,82.944L661.357,83.136L661.364,83.329L661.371,83.524L661.38,83.721L661.389,83.918L661.399,84.117L661.409,84.318L661.421,84.519L661.433,84.722L661.447,84.927L661.461,85.133L661.476,85.34L661.491,85.549L661.508,85.759L661.526,85.97L661.544,86.183L661.563,86.398L661.584,86.614L661.605,86.831L661.626,87.05L661.649,87.27L661.673,87.492L661.698,87.715L661.723,87.94L661.75,88.166L661.777,88.394L661.805,88.623L661.835,88.853L661.865,89.085L661.895,89.315L661.961,89.791L662.03,90.27L662.102,90.754L662.179,91.245L662.259,91.742L662.344,92.245L662.432,92.754L662.524,93.271L662.621,93.793L662.721,94.323L662.826,94.858L662.934,95.401L663.047,95.95L663.164,96.506L663.285,97.068L663.41,97.638L663.54,98.214L663.674,98.798L663.812,99.388L663.955,99.985L664.102,100.593L664.281,101.318L664.461,102.044L664.642,102.765L664.824,103.483L665.005,104.197L665.188,104.907L665.371,105.614L665.555,106.317L665.74,107.016L665.926,107.711L666.112,108.403L666.299,109.091L666.487,109.775L666.675,110.455L666.865,111.131L667.055,111.803L667.247,112.472L667.439,113.137L667.632,113.797L667.826,114.454L668.022,115.107L668.218,115.756L668.415,116.401L668.613,117.042L668.813,117.679L669.013,118.312L669.215,118.941L669.418,119.566L669.622,120.187L669.827,120.804L670.033,121.417L670.241,122.025L670.45,122.63L670.66,123.23L670.871,123.827L671.084,124.419L671.298,125.007L671.514,125.591L671.73,126.171L671.948,126.747L672.168,127.318L672.389,127.886L672.611,128.449L672.835,129.008L673.062,129.565L673.174,129.838L673.288,130.113L673.402,130.386L673.516,130.659L673.631,130.93L673.746,131.2L673.861,131.47L673.977,131.738L674.094,132.005L674.21,132.271L674.327,132.536L674.445,132.8L674.563,133.063L674.681,133.325L674.8,133.585L674.919,133.845L675.039,134.103L675.159,134.361L675.279,134.617L675.4,134.872L675.521,135.127L675.642,135.379L675.764,135.631L675.887,135.882L676.01,136.132L676.133,136.381L676.257,136.628L676.381,136.875L676.505,137.12L676.631,137.365L676.756,137.608L676.882,137.85L677.008,138.091L677.135,138.331L677.262,138.57L677.39,138.807L677.518,139.044L677.646,139.28L677.775,139.514L677.905,139.747L678.035,139.979L678.165,140.21L678.296,140.44L678.427,140.669L678.559,140.897L678.691,141.124L678.824,141.349L678.957,141.574L679.091,141.797L679.225,142.019L679.359,142.24L679.494,142.46L679.63,142.679L679.766,142.897L679.903,143.114L680.04,143.329L680.177,143.544L680.315,143.757L680.453,143.969L680.592,144.181L680.732,144.391L680.872,144.6L681.012,144.807L681.153,145.014L681.294,145.219L681.436,145.424L681.579,145.628L681.722,145.83L681.865,146.031L682.009,146.231L682.153,146.43L682.298,146.628L682.444,146.825L682.59,147.02L682.736,147.215L682.884,147.408L683.031,147.6L683.179,147.792L683.328,147.982L683.477,148.171L683.627,148.359L683.777,148.546L683.928,148.732L684.079,148.916L684.231,149.1L684.384,149.282L684.537,149.464L684.691,149.644L684.845,149.823L684.999,150.001L685.155,150.179L685.311,150.354L685.467,150.529L685.624,150.703L685.782,150.876L685.94,151.048L686.099,151.218L686.258,151.388L686.418,151.556L686.579,151.724L686.74,151.89L686.901,152.055L687.064,152.219L687.227,152.383L687.39,152.545L687.555,152.706L687.719,152.866L687.885,153.025L688.051,153.182L688.218,153.339L688.385,153.495L688.553,153.65L688.722,153.803L688.891,153.956L689.061,154.108L689.232,154.258L689.403,154.408L689.575,154.556L689.748,154.704L689.921,154.85L690.095,154.995L690.27,155.14L690.445,155.283L690.622,155.425L690.798,155.567L690.976,155.707L691.154,155.846L691.333,155.984L691.513,156.122L691.693,156.258L691.875,156.393L692.057,156.527L692.239,156.661L692.423,156.793L692.607,156.924L692.792,157.054L692.978,157.183L693.165,157.311L693.352,157.439L693.54,157.565L693.729,157.69L693.919,157.814L694.109,157.937L694.301,158.059L694.493,158.181L694.686,158.301L694.88,158.42L695.075,158.538L695.27,158.656L695.467,158.772L695.664,158.887L695.863,159.002L696.062,159.115L696.262,159.227L696.463,159.339L696.664,159.449L696.867,159.558L697.071,159.667L697.275,159.774L697.481,159.881L697.687,159.986L697.894,160.091L698.103,160.194L698.312,160.297L698.522,160.398L698.738,160.501L699.405,160.815L700.072,161.129L700.735,161.439L701.394,161.745L702.049,162.048L702.701,162.348L703.348,162.645L703.992,162.938L704.632,163.228L705.268,163.515L705.9,163.799L706.528,164.079L707.153,164.356L707.774,164.629L708.391,164.9L709.005,165.167L709.615,165.431L710.221,165.691L710.824,165.948L711.423,166.202L712.018,166.453L712.61,166.701L713.199,166.945L713.783,167.186L714.365,167.424L714.943,167.658L715.517,167.89L716.088,168.118L716.656,168.343L717.22,168.565L717.781,168.783L718.339,168.998L718.893,169.211L719.444,169.42L719.992,169.625L720.536,169.828L721.078,170.027L721.616,170.224L722.15,170.417L722.682,170.607L723.211,170.794L723.736,170.977L724.258,171.158L724.778,171.335L725.294,171.51L725.807,171.681L726.317,171.849L726.824,172.014L727.328,172.176L727.83,172.335L728.328,172.491L728.823,172.643L729.316,172.793L729.806,172.94L730.292,173.083L730.776,173.224L731.258,173.361L731.736,173.495L732.212,173.627L732.685,173.755L733.155,173.881L733.623,174.003L734.088,174.122L734.55,174.239L735.01,174.352L735.467,174.463L735.922,174.571L736.374,174.675L736.824,174.777L737.271,174.876L737.715,174.972L738.158,175.064L738.597,175.155L739.035,175.242L739.47,175.326L739.903,175.408L740.333,175.486L740.761,175.562L741.187,175.635L741.611,175.705L742.033,175.772L742.452,175.837L742.869,175.898L743.284,175.957L743.697,176.013L744.108,176.067L744.517,176.117L744.924,176.165L745.329,176.21L745.733,176.253L746.134,176.293L746.533,176.33L746.931,176.364L747.326,176.396L747.72,176.424L748.112,176.451L748.503,176.474L748.892,176.495L749.279,176.514L749.664,176.529L750.048,176.543L750.431,176.553L750.812,176.561L751.191,176.566L751.569,176.569L751.946,176.569L752.321,176.567L752.695,176.562L753.068,176.554L753.439,176.544L753.809,176.532L754.178,176.516L754.546,176.499L754.913,176.479L755.279,176.456L755.644,176.431L756.007,176.403L756.37,176.373L756.732,176.34L757.093,176.305L757.453,176.267L757.812,176.227L758.171,176.184L758.529,176.139L758.886,176.091L759.243,176.041L759.598,175.988L759.954,175.933L760.309,175.876L760.663,175.815ZM687.733,23.226L687.892,23.067L688.012,22.949L687.634,23.319L687.622,23.338L687.733,23.226ZM687.622,23.338L687.616,23.344L687.492,23.539L687.622,23.338Z" style="fill:white;"/>
    </g>
    <g transform="matrix(0,0.35807,-0.35807,0,192.831,20.7623)">
        <path d="M238.78,0C370.655,0 477.56,106.905 477.56,238.78C477.56,370.655 370.655,477.56 238.78,477.56C106.905,477.56 0,370.655 0,238.78C0,106.905 106.905,0 238.78,0Z" style="fill:url(#_Linear1);stroke:white;stroke-width:2.79px;"/>
    </g>
    <g transform="matrix(0.35807,0,0,0.35807,21.8309,-88.9659)">
        <path d="M234.45,408.788C233.428,398.619 236.226,377.847 254.123,372.014C258.541,370.562 260.753,377.303 256.318,378.747C239.387,384.268 241.403,407.115 241.497,408.085C241.948,412.739 234.918,413.441 234.45,408.788" style="fill:white;fill-rule:nonzero;"/>
    </g>
    <g transform="matrix(0.35807,0,0,0.35807,21.8309,-97.5901)">
        <path d="M204.276,390.581C204.472,400.617 206.681,407.865 210.859,412.15C214.552,415.941 219.62,417.088 224.733,416.464C225.471,408.482 223.936,402.236 220.157,397.874C215.529,392.533 208.396,391.008 204.276,390.581ZM205.786,417.096C199.741,410.893 196.855,400.698 197.209,386.799C197.257,384.951 198.731,383.449 200.576,383.352C209.317,382.895 219.737,386.573 225.511,393.237C231.078,399.665 233.076,408.655 231.449,419.958C231.252,421.326 230.276,422.455 228.951,422.848C221.078,425.193 211.556,423.012 205.786,417.096" style="fill:white;fill-rule:nonzero;"/>
    </g>
    <g transform="matrix(0.35807,0,0,0.35807,21.8309,-39.319)">
        <path d="M204.562,280.832C193.481,280.832 182.741,288.185 180.229,299.242C177.158,312.765 184.772,332.282 198.337,345.649C214.729,361.804 230.296,364.343 236.493,364.66C237.886,364.73 239.693,364.684 241.093,364.567C247.323,364.039 262.021,361.023 278.629,345.293C292.405,332.242 300.152,313.812 297.465,300.473C295.742,291.914 289.918,285.705 280.153,282.018C277.715,281.097 275.031,280.631 272.175,280.631C256.99,280.631 241.463,293.398 241.309,293.527C239.268,295.225 236.293,295.192 234.295,293.447C234.156,293.326 219.582,280.832 204.562,280.832ZM237.074,375.494C230.25,375.315 210.638,372.943 190.752,353.346C174.445,337.276 165.785,314.044 169.69,296.849C173.332,280.826 188.412,270.025 204.562,270.025C218.8,270.025 231.868,278.155 237.907,282.562C244.151,278.141 257.809,269.824 272.175,269.824C276.339,269.824 280.307,270.525 283.969,271.908C300.758,278.246 306.337,289.78 308.061,298.341C312.026,318.041 299.869,340.057 286.06,353.138C266.49,371.676 248.417,374.896 241.177,375.392C239.827,375.485 238.427,375.528 237.074,375.494" style="fill:white;fill-rule:nonzero;"/>
    </g>
    <g transform="matrix(0.35807,0,0,0.35807,21.8309,129.976)">
        <path d="M84.314,61.273C80.414,56.675 81.206,49.836 85.766,45.998C90.331,42.156 97.158,42.555 101.049,47.154C103.611,50.414 103.733,53.923 102.537,57.686L99.857,56.403C100.581,53.647 100.503,51.243 98.623,48.917C97.216,47.306 95.125,46.37 92.903,46.37C91.011,46.37 89.16,47.049 87.692,48.287C84.4,51.057 83.843,55.958 86.449,59.211C88.027,60.974 90.45,61.922 92.911,61.718L93.615,61.657L94.42,64.517C90.568,65.05 87.156,64.429 84.314,61.273ZM109.577,72.388C114.822,79.47 120.486,75.245 119.638,71.135C119.135,68.861 116.274,67.036 114.919,66.287L109.577,72.388ZM111.135,87.337L108.528,85.056L110,77.198C109.031,76.399 108.209,75.485 107.573,74.676L102.844,80.077L100.594,78.109L114.15,62.625C117.589,64.147 121.676,66.567 122.554,70.496C123.013,72.606 122.576,74.437 120.622,76.67C118.667,78.904 115.791,80.118 112.708,78.877L111.135,87.337ZM128.255,100.071C124.954,97.893 124.045,93.425 126.231,90.111L134.103,78.169L136.576,79.8L128.703,91.741C127.424,93.682 127.94,96.313 129.886,97.597C131.76,98.834 134.492,98.255 135.732,96.375L143.606,84.433L146.078,86.065L138.205,98.007C136.021,101.323 131.553,102.241 128.255,100.071ZM155.838,114.658C154.864,114.658 153.906,114.448 152.993,114.036C151.362,113.26 150.218,112.126 149.538,110.692C148.935,109.344 148.835,107.878 149.25,106.549L149.502,105.746L152.367,106.6L152.095,107.432C151.893,108.049 151.953,108.767 152.262,109.451C153.011,111.049 155.115,112.028 156.82,111.542C157.811,111.188 158.625,110.43 159.005,109.476C159.397,108.546 159.351,107.573 158.881,106.714C158.37,105.76 157.689,105.201 156.967,104.609L156.823,104.49C155.788,103.667 154.649,102.761 154.059,101.028C153.481,99.334 153.557,97.659 154.27,96.309C154.942,95.055 156.053,94.151 157.485,93.691C159.189,93.228 160.652,93.393 162.2,94.129C163.706,94.845 164.875,96.048 165.492,97.515C165.894,98.442 166.036,99.471 165.901,100.48L165.768,101.471L162.91,100.609L162.96,99.928C162.993,99.486 162.925,99.068 162.758,98.681C162.076,97.088 160.079,96.091 158.413,96.53C157.722,96.747 157.205,97.144 156.918,97.702C156.493,98.476 156.67,99.415 156.89,100.07C157.186,100.947 157.782,101.438 158.605,102.116C159.584,102.895 160.692,103.773 161.499,105.326C162.369,106.901 162.479,108.823 161.787,110.581C161.059,112.336 159.622,113.697 157.839,114.33L157.616,114.409C156.999,114.58 156.42,114.658 155.838,114.658ZM187.355,126.646L184.527,125.761L187.289,116.949C184.115,116.869 180.277,115.664 177.625,113.922L174.865,122.733L172.012,121.836L178.401,101.451L181.254,102.345L178.563,110.93C180.901,112.828 185.23,114.164 188.229,113.949L190.916,105.373L193.745,106.256L187.355,126.646ZM230.055,133.351L227.097,133.169L228.224,114.797L222.64,114.454L222.822,111.497L236.947,112.364L236.766,115.322L231.182,114.979L230.055,133.351ZM257.43,114.173C257.284,114.173 257.139,114.178 256.991,114.186C252.905,114.626 249.838,118.513 250.201,122.846C250.547,127.027 253.947,130.304 257.936,130.304L257.938,130.304C258.082,130.304 258.227,130.299 258.372,130.29C262.476,129.849 265.554,125.947 265.192,121.599C264.846,117.435 261.436,114.173 257.43,114.173ZM257.885,133.273C255.325,133.273 252.933,132.353 250.971,130.611C248.8,128.717 247.465,126.047 247.22,123.094C246.975,120.162 247.85,117.315 249.684,115.082C251.423,112.929 253.871,111.565 256.571,111.249L256.962,111.215C257.159,111.205 257.327,111.2 257.496,111.2C260.033,111.2 262.426,112.12 264.417,113.859C266.578,115.771 267.901,118.432 268.144,121.354C268.389,124.293 267.525,127.146 265.713,129.385C263.938,131.549 261.492,132.912 258.822,133.224L258.402,133.259C258.228,133.267 258.057,133.273 257.885,133.273ZM301.299,105.537L306.681,119.984L310.181,118.68C314.164,117.196 316.198,112.748 314.714,108.766C313.601,105.779 310.703,103.773 307.502,103.773C306.584,103.773 305.679,103.936 304.809,104.261C303.648,104.693 302.486,105.095 301.299,105.537ZM304.913,123.805L297.462,103.806L303.792,101.447C306.415,100.471 309.337,100.579 311.946,101.748C314.524,102.926 316.491,105.051 317.49,107.732C318.486,110.4 318.391,113.303 317.227,115.903C316.018,118.494 313.894,120.459 311.241,121.447L304.913,123.805ZM328.34,93.993L332.267,101.087C333.75,100.642 336.932,99.465 337.911,97.339C338.384,96.272 338.227,95.045 337.425,93.597C336.623,92.149 335.667,91.364 334.501,91.198C334.36,91.179 334.208,91.169 334.056,91.169C331.843,91.169 329.422,93.045 328.34,93.993ZM334.602,111.476L324.633,93.473L325.391,92.682C325.421,92.648 330.173,87.648 334.888,88.237C337.03,88.52 338.762,89.836 340.042,92.149C341.32,94.459 341.515,96.626 340.622,98.587C340.305,99.226 339.907,99.812 339.435,100.342L346.859,104.691L343.828,106.369L336.936,102.319C335.854,102.961 334.714,103.423 333.74,103.748L337.217,110.028L334.602,111.476ZM359.122,96.616L346.74,79.205L349.176,77.471L361.56,94.883L359.122,96.616ZM373.656,85.643L359.358,69.875L361.041,68.344L378.892,72.425L368.788,61.284L371.003,59.273L385.323,75.065L383.679,76.556L365.707,72.466L375.851,83.655L373.656,85.643ZM395.484,64.454L379.029,50.834L380.936,48.531L386.695,53.297L385.83,42.487L388.548,39.204L389.742,54.156L405.039,52.778L402.368,56.006L391.161,56.994L397.391,62.15L395.484,64.454Z" style="fill:white;fill-rule:nonzero;"/>
    </g>
    <g transform="matrix(0.35807,0,0,0.35807,21.8309,42.2424)">
        <path d="M163.535,182.3L163.535,218.463C163.535,224.913 168.748,230.16 175.156,230.16C181.565,230.16 186.78,224.913 186.78,218.463L186.78,182.3L192.914,182.3L192.914,218.463C192.914,228.294 184.947,236.292 175.156,236.292C165.365,236.292 157.399,228.294 157.399,218.463L157.399,182.3L163.535,182.3ZM142.97,199.623C142.97,208.215 139.261,214.457 130.981,216.94L142.112,235.715L134.929,235.715L124.418,217.935C120.593,218.091 116.823,217.547 114.24,217.017L114.24,235.715L108.033,235.715L108.033,183.907C113.13,182.323 117.675,181.279 123.158,181.279C135.02,181.279 142.97,187.075 142.97,199.623ZM66.751,188.289L66.751,210.887L86.241,210.887L86.241,217.09L66.751,217.09L66.751,235.716L60.544,235.716L60.544,182.154L92.161,182.154L92.161,188.289L66.751,188.289ZM215.715,182.083L215.715,235.715L209.508,235.715L209.508,182.083L215.715,182.083ZM265.883,182.082L265.883,188.218L251.445,188.218L251.445,235.716L245.31,235.716L245.31,188.218L230.875,188.218L230.875,182.082L265.883,182.082ZM370.781,235.716L364.142,235.716L360.396,226.209C353.017,228.616 342.357,228.616 334.994,226.154L331.323,235.716L324.688,235.716L345.437,182.082L349.65,182.082L370.781,235.716ZM315.248,219.186C315.248,230.939 306.975,235.715 296.193,235.715C290.906,235.715 286.708,234.683 281.756,233.449L281.756,184.273C285.967,182.95 289.984,182.157 294.451,182.157C303.837,182.157 311.063,186.359 311.063,196.591C311.063,200.266 310.109,203.326 308.222,205.695C312.455,208.796 315.248,213.906 315.248,219.186ZM390.743,229.583L417.016,229.583L417.016,235.716L384.534,235.716L384.534,182.226L416.151,182.226L416.151,188.36L390.743,188.36L390.743,210.958L410.23,210.958L410.23,217.165L390.743,217.165L390.743,229.583ZM123.199,187.453C119.574,187.453 116.175,188.1 114.24,188.552L114.24,210.695C116.176,211.148 119.577,211.795 123.199,211.795C131.57,211.795 136.763,208.606 136.763,199.623C136.763,190.64 131.565,187.453 123.199,187.453ZM287.965,211.028L287.965,228.616C289.339,228.893 291.383,229.278 293.626,229.44C301.485,230.003 309.114,228.51 309.114,219.186C309.114,215.374 306.299,211.144 302.787,209.628C298.269,211.457 292.799,211.028 287.965,211.028ZM302.323,190.235C298.732,187.582 292.168,188.132 287.965,189.013L287.965,204.821L294.314,204.821C298.362,204.821 301.279,203.986 302.991,202.337C305.776,199.412 305.663,192.771 302.323,190.235ZM347.596,193.707L337.273,220.393C343.206,222.348 352.15,222.35 358.112,220.488L347.596,193.707Z" style="fill:white;"/>
    </g>
    <defs>
        <linearGradient id="_Linear1" x1="0" y1="0" x2="1" y2="0" gradientUnits="userSpaceOnUse" gradientTransform="matrix(0,-473.65,-473.65,-0,238.78,477.56)"><stop offset="0" style="stop-color:rgb(245,130,31);stop-opacity:1"/><stop offset="1" style="stop-color:rgb(236,0,140);stop-opacity:1"/></linearGradient>
    </defs>
</svg>
