<svg xmlns="http://www.w3.org/2000/svg" height="24" viewBox="0 -960 960 960" width="24"><path d="M150.002-70.002v-597.689q0-30.308 21-51.308t51.307-21h375.383q30.308 0 51.307 21 21 21 21 51.308v597.689L410.001-181.54 150.002-70.002ZM210.001-162l200-86 200 86v-505.691q0-4.616-3.847-8.463-3.846-3.846-8.462-3.846H222.309q-4.615 0-8.462 3.846-3.846 3.847-3.846 8.463V-162Zm539.998-28.002V-807.69q0-4.616-3.846-8.462-3.847-3.847-8.462-3.847H270.002v-59.998h467.689q30.307 0 51.307 21 21 21 21 51.307v617.688h-59.999ZM210.001-680H610.001h-400Z"/></svg>